<svg width="25" height="25" viewBox="0 0 25 25" fill="none" xmlns="http://www.w3.org/2000/svg">
<path d="M0.253418 19.4865H4.42286V23.8401C4.42286 23.9925 4.3981 24.1433 4.34999 24.284C4.30188 24.4247 4.23137 24.5526 4.14248 24.6603C4.05359 24.768 3.94806 24.8534 3.83192 24.9117C3.71578 24.97 3.5913 25 3.46559 25H1.21069C1.08498 25 0.960498 24.97 0.844357 24.9117C0.728215 24.8534 0.622687 24.768 0.533796 24.6603C0.444905 24.5526 0.374393 24.4247 0.326286 24.284C0.278179 24.1433 0.253418 23.9925 0.253418 23.8401V19.4865Z" fill="#090909"/>
<path d="M20.6502 19.4865H24.8206V23.8401C24.8206 23.9925 24.7958 24.1433 24.7477 24.284C24.6996 24.4247 24.6291 24.5526 24.5402 24.6603C24.4513 24.768 24.3458 24.8534 24.2296 24.9117C24.1135 24.97 23.989 25 23.8633 25H21.6075C21.4818 25 21.3573 24.97 21.2411 24.9117C21.125 24.8534 21.0195 24.768 20.9306 24.6603C20.8417 24.5526 20.7712 24.4247 20.7231 24.284C20.675 24.1433 20.6502 23.9925 20.6502 23.8401V19.4865Z" fill="#090909"/>
<path d="M0.832408 9.52642H2.81077V7.50929H0.832408C0.61164 7.50929 0.399913 7.61555 0.243806 7.80469C0.0876993 7.99384 0 8.25037 0 8.51785C0 8.78534 0.0876993 9.04187 0.243806 9.23102C0.399913 9.42016 0.61164 9.52642 0.832408 9.52642Z" fill="#8022D9"/>
<path d="M24.1676 9.52642H22.1892V7.50929H24.1676C24.3884 7.50929 24.6001 7.61555 24.7562 7.80469C24.9123 7.99384 25 8.25037 25 8.51785C25 8.78534 24.9123 9.04187 24.7562 9.23102C24.6001 9.42016 24.3884 9.52642 24.1676 9.52642Z" fill="#8022D9"/>
<path d="M0.832408 9.52642H2.81077V7.50929H0.832408C0.61164 7.50929 0.399913 7.61555 0.243806 7.80469C0.0876993 7.99384 0 8.25037 0 8.51785C0 8.78534 0.0876993 9.04187 0.243806 9.23102C0.399913 9.42016 0.61164 9.52642 0.832408 9.52642Z" fill="url(#paint0_linear_605_189)"/>
<path d="M24.1676 9.52642H22.1892V7.50929H24.1676C24.3884 7.50929 24.6001 7.61555 24.7562 7.80469C24.9123 7.99384 25 8.25037 25 8.51785C25 8.78534 24.9123 9.04187 24.7562 9.23102C24.6001 9.42016 24.3884 9.52642 24.1676 9.52642Z" fill="url(#paint1_linear_605_189)"/>
<path d="M0.904556 11.5704C0.475942 12.9199 0.25646 14.3537 0.257127 15.7997L5.68628 19.0909L18.8337 19.1223L24.8243 15.7997C24.8245 14.3537 24.605 12.9201 24.1768 11.5704H0.904556Z" fill="#8022D9"/>
<path d="M0.904556 11.5704C0.475942 12.9199 0.25646 14.3537 0.257127 15.7997L5.68628 19.0909L18.8337 19.1223L24.8243 15.7997C24.8245 14.3537 24.605 12.9201 24.1768 11.5704H0.904556Z" fill="url(#paint2_linear_605_189)"/>
<path d="M17.5768 1.96333H7.52959C6.60952 1.96327 5.71225 2.31021 4.96229 2.95601C4.21234 3.60181 3.64689 4.51444 3.34443 5.56726L2.61191 8.11444H22.4972L21.7638 5.56726C21.4613 4.51399 20.8956 3.60101 20.1453 2.95515C19.3949 2.3093 18.4972 1.96264 17.5768 1.96333Z" fill="#8022D9"/>
<path d="M21.5363 8.11445H3.27322L4.01314 5.50451C4.24706 4.68409 4.68646 3.97256 5.27007 3.46915C5.85367 2.96574 6.55239 2.69554 7.26878 2.69623H17.6767C18.4278 2.69618 19.1584 2.99398 19.7567 3.54415C20.3551 4.09433 20.7884 4.86665 20.9906 5.74321L21.5363 8.11445Z" fill="url(#paint3_linear_605_189)"/>
<path d="M0.904556 11.5704C8.54174 12.736 16.2688 12.7492 23.9086 11.6097L24.1694 11.5704C23.7939 10.3882 23.2629 9.28734 22.5971 8.31055L22.4612 8.11108H2.61192L2.47503 8.31055C1.81016 9.28771 1.27985 10.3885 0.904556 11.5704Z" fill="#8022D9"/>
<path d="M0.904556 11.5704C8.54174 12.736 16.2688 12.7492 23.9086 11.6097L24.1694 11.5704C23.7939 10.3882 23.2629 9.28734 22.5971 8.31055L22.4612 8.11108H2.61192L2.47503 8.31055C1.81016 9.28771 1.27985 10.3885 0.904556 11.5704Z" fill="url(#paint4_linear_605_189)"/>
<path d="M24.9861 18.0801L24.8206 15.803H24.5561L22.0893 16.6704C20.2825 17.3067 18.4104 17.6297 16.5289 17.6297H8.28062C6.39903 17.6297 4.52693 17.3067 2.72013 16.6704L0.253427 15.803L0.0878701 18.0801C0.0482353 18.6271 0.102932 19.1781 0.248487 19.6981C0.394041 20.218 0.627271 20.6957 0.933355 21.1006C1.23944 21.5055 1.61169 21.8288 2.02645 22.05C2.44121 22.2712 2.88942 22.3855 3.34259 22.3856H21.7314C22.1846 22.3855 22.6328 22.2712 23.0476 22.05C23.4623 21.8288 23.8346 21.5055 24.1406 21.1006C24.4467 20.6957 24.68 20.218 24.8255 19.6981C24.9711 19.1781 25.0258 18.6271 24.9861 18.0801Z" fill="#8022D9"/>
<path d="M24.9861 18.0801L24.8206 15.803H24.5561L22.0893 16.6704C20.2825 17.3067 18.4104 17.6297 16.5289 17.6297H8.28062C6.39903 17.6297 4.52693 17.3067 2.72013 16.6704L0.253427 15.803L0.0878701 18.0801C0.0482353 18.6271 0.102932 19.1781 0.248487 19.6981C0.394041 20.218 0.627271 20.6957 0.933355 21.1006C1.23944 21.5055 1.61169 21.8288 2.02645 22.05C2.44121 22.2712 2.88942 22.3855 3.34259 22.3856H21.7314C22.1846 22.3855 22.6328 22.2712 23.0476 22.05C23.4623 21.8288 23.8346 21.5055 24.1406 21.1006C24.4467 20.6957 24.68 20.218 24.8255 19.6981C24.9711 19.1781 25.0258 18.6271 24.9861 18.0801Z" fill="url(#paint5_linear_605_189)"/>
<path d="M12.537 12.7874H7.61562L8.59693 16.2121H12.537H16.4761L17.4584 12.7874H12.537Z" fill="white"/>
<path d="M12.537 13.0586H7.97633L8.88551 15.9409H12.537H16.1885L17.0977 13.0586H12.537Z" fill="#8022D9"/>
<path d="M12.537 13.0586H7.97633L8.88551 15.9409H12.537H16.1885L17.0977 13.0586H12.537Z" fill="url(#paint6_linear_605_189)"/>
<path d="M17.0607 13.3881H7.97633V13.7489H17.0607V13.3881Z" fill="white"/>
<path d="M16.8073 14.3193H8.27045V14.6802H16.8073V14.3193Z" fill="white"/>
<path d="M16.4835 15.2506H8.47855V15.6114H16.4835V15.2506Z" fill="white"/>
<path d="M19.7272 21.4913H5.35054C5.35054 20.3841 6.5936 19.4865 8.12523 19.4865H16.9478C18.4813 19.4865 19.7225 20.383 19.7225 21.4913H19.7272Z" fill="#090909"/>
<path d="M10.6382 1.46129V0.16249H10.3274V0H11.2597V0.16249H10.9499V1.46129H10.6382Z" fill="white"/>
<path d="M11.416 1.4613V0.323865C11.4168 0.280539 11.4255 0.237956 11.4415 0.199195C11.4575 0.160434 11.4804 0.126463 11.5085 0.0997404C11.5689 0.0360269 11.6468 0.00204065 11.7268 0.00448752H12.0385C12.1189 0.00261116 12.197 0.0369531 12.2577 0.100861C12.2858 0.127584 12.3088 0.161554 12.3247 0.200315C12.3407 0.239076 12.3494 0.281659 12.3502 0.324986V1.4613H12.0394V0.812457H11.7277V1.46242L11.416 1.4613ZM11.7259 0.649967H12.0376V0.323865C12.0375 0.302134 12.0333 0.280716 12.0253 0.261279C12.0172 0.241842 12.0056 0.22491 11.9913 0.211803C11.961 0.180117 11.9222 0.162975 11.8822 0.163616C11.8419 0.162908 11.8027 0.180041 11.7721 0.211803C11.758 0.225082 11.7465 0.24205 11.7385 0.261448C11.7304 0.280847 11.7261 0.302179 11.7259 0.323865V0.649967Z" fill="white"/>
<path d="M12.6591 1.46129V1.05451C12.6591 0.864001 12.7618 0.756421 12.9689 0.730646C12.7618 0.704872 12.6591 0.597292 12.6591 0.406786V0H12.9689V0.487471C12.9695 0.509098 12.9739 0.530324 12.9819 0.549676C12.9898 0.569028 13.0012 0.586041 13.0152 0.599534C13.0459 0.63062 13.0847 0.647647 13.1248 0.647647C13.1648 0.647647 13.2036 0.63062 13.2344 0.599534C13.2485 0.586199 13.2599 0.56922 13.2679 0.549833C13.2759 0.530447 13.2803 0.509142 13.2806 0.487471V0H13.5914V0.406786C13.5914 0.597292 13.4878 0.705245 13.2806 0.730646C13.4878 0.756794 13.5914 0.865121 13.5914 1.05563V1.46129H13.2806V0.973822C13.2805 0.952106 13.2762 0.930717 13.2682 0.911293C13.2602 0.891869 13.2486 0.874926 13.2344 0.86176C13.2036 0.830673 13.1648 0.813647 13.1248 0.813647C13.0847 0.813647 13.0459 0.830673 13.0152 0.86176C13.0011 0.875094 12.9896 0.892074 12.9816 0.91146C12.9736 0.930847 12.9693 0.952152 12.9689 0.973822V1.46129H12.6591Z" fill="white"/>
<path d="M14.0575 1.4613V0.00448608H14.3683V1.4613H14.0575Z" fill="white"/>
<path d="M17.9116 12.2675L21.5363 8.11444H3.27229L7.12912 12.2607C10.7201 12.5157 14.3203 12.5179 17.9116 12.2675Z" fill="#8022D9"/>
<path d="M17.9116 12.2675L21.5363 8.11444H3.27229L7.12912 12.2607C10.7201 12.5157 14.3203 12.5179 17.9116 12.2675Z" fill="url(#paint7_linear_605_189)"/>
<path opacity="0.2" d="M2.26878 8.3139H0.638182C0.583481 8.3139 0.53102 8.28757 0.49234 8.24071C0.453661 8.19384 0.431931 8.13028 0.431931 8.064C0.431931 7.99773 0.453661 7.93416 0.49234 7.8873C0.53102 7.84043 0.583481 7.8141 0.638182 7.8141H2.26878C2.32348 7.8141 2.37594 7.84043 2.41462 7.8873C2.4533 7.93416 2.47503 7.99773 2.47503 8.064C2.47503 8.13028 2.4533 8.19384 2.41462 8.24071C2.37594 8.28757 2.32348 8.3139 2.26878 8.3139Z" fill="white"/>
<path opacity="0.2" d="M24.409 8.3139H22.7784C22.7237 8.3139 22.6712 8.28757 22.6326 8.24071C22.5939 8.19384 22.5721 8.13028 22.5721 8.064C22.5721 7.99773 22.5939 7.93416 22.6326 7.8873C22.6712 7.84043 22.7237 7.8141 22.7784 7.8141H24.409C24.4361 7.8141 24.4629 7.82057 24.4879 7.83313C24.5129 7.84568 24.5357 7.86409 24.5548 7.8873C24.574 7.9105 24.5892 7.93805 24.5995 7.96837C24.6099 7.99869 24.6152 8.03119 24.6152 8.064C24.6152 8.09682 24.6099 8.12931 24.5995 8.15963C24.5892 8.18995 24.574 8.2175 24.5548 8.24071C24.5357 8.26391 24.5129 8.28232 24.4879 8.29488C24.4629 8.30744 24.4361 8.3139 24.409 8.3139Z" fill="white"/>
<path d="M6.92749 12.8132C6.92749 12.8132 2.17999 12.3818 1.66482 12.6205C1.14965 12.8592 0.832413 14.9738 0.832413 14.9738L7.95413 16.1247L6.92749 12.8132Z" fill="white"/>
<path d="M18.1585 12.8132C18.1585 12.8132 22.907 12.3818 23.4212 12.6205C23.9354 12.8592 24.2536 14.9738 24.2536 14.9738L17.1319 16.1247L18.1585 12.8132Z" fill="white"/>
<path d="M10.5845 8.11443H5.57251C5.58433 8.09153 5.59763 8.06979 5.61228 8.04943C5.75069 7.86041 5.89735 7.68048 6.05161 7.51041C6.18724 7.34217 6.33909 7.1943 6.50388 7.07001C6.85627 6.82123 7.25398 6.79321 7.66093 6.73382L7.72012 6.72598H7.76174L7.86256 6.70917C8.11929 6.66585 8.37904 6.65496 8.63762 6.67667L8.73011 6.68451C8.94693 6.70732 9.16189 6.75117 9.37292 6.81563C9.6491 6.88543 9.90907 7.02857 10.1341 7.23474C10.3552 7.45886 10.4698 7.76367 10.5781 8.05728C10.5826 8.06562 10.5855 8.07508 10.5866 8.08497C10.5877 8.09485 10.587 8.10492 10.5845 8.11443Z" fill="#8022D9"/>
<path d="M10.5845 8.11443H5.57251C5.58433 8.09153 5.59763 8.06979 5.61228 8.04943C5.75069 7.86041 5.89735 7.68048 6.05161 7.51041C6.18724 7.34217 6.33909 7.1943 6.50388 7.07001C6.85627 6.82123 7.25398 6.79321 7.66093 6.73382L7.72012 6.72598H7.76174L7.86256 6.70917C8.11929 6.66585 8.37904 6.65496 8.63762 6.67667L8.73011 6.68451C8.94693 6.70732 9.16189 6.75117 9.37292 6.81563C9.6491 6.88543 9.90907 7.02857 10.1341 7.23474C10.3552 7.45886 10.4698 7.76367 10.5781 8.05728C10.5826 8.06562 10.5855 8.07508 10.5866 8.08497C10.5877 8.09485 10.587 8.10492 10.5845 8.11443Z" fill="url(#paint8_linear_605_189)"/>
<path d="M7.68035 7.18095C7.72625 7.26709 7.79513 7.33156 7.87551 7.36362C8.06535 7.43671 8.26555 7.46188 8.46374 7.43758C8.53049 7.44118 8.59685 7.4234 8.65612 7.38603C8.68597 7.3554 8.70977 7.31704 8.72578 7.2738C8.74178 7.23055 8.74959 7.18351 8.74861 7.13613C8.76509 6.89302 8.73338 6.64866 8.65612 6.42341C8.64613 6.3861 8.62751 6.35304 8.60248 6.32816C8.57644 6.30947 8.54745 6.29763 8.51739 6.29342C8.33241 6.25196 7.92083 6.18136 7.77007 6.36066C7.66093 6.49401 7.61099 7.02519 7.68035 7.18095Z" fill="#F7AD7E"/>
<path d="M7.93747 7.15966C8.02718 7.22241 8.12894 7.25545 8.23252 7.25545C8.3361 7.25545 8.43786 7.22241 8.52756 7.15966C8.56802 7.13294 8.60235 7.09442 8.62745 7.0476C8.65579 6.97424 8.66514 6.89219 8.65427 6.81227C8.65698 6.73031 8.63383 6.65017 8.58953 6.58814C8.54814 6.54874 8.4991 6.52289 8.44709 6.51306C8.28776 6.4679 8.12321 6.45615 7.9606 6.47832C7.88755 6.48139 7.81696 6.51107 7.75804 6.56349C7.73948 6.59205 7.72658 6.62539 7.72033 6.66095C7.71407 6.6965 7.71463 6.73332 7.72197 6.76856C7.73137 6.84917 7.75562 6.92618 7.79292 6.99388C7.83023 7.06159 7.87963 7.11825 7.93747 7.15966Z" fill="url(#paint9_linear_605_189)"/>
<path d="M9.05938 6.16903C8.9888 6.37219 8.8761 6.54981 8.7322 6.68469C8.58831 6.81957 8.4181 6.90714 8.23807 6.9389C7.9606 6.96467 7.65631 6.69796 7.53515 6.36402C7.41399 6.03007 7.39642 4.74696 7.39642 4.74696C7.39261 4.66067 7.40895 4.57484 7.44359 4.4993C7.48151 4.40629 7.5518 4.12613 7.64799 4.04433C8.09083 3.92305 8.55136 3.93381 8.99002 4.0757C9.0825 4.16087 9.12875 4.43094 9.1491 4.48137C9.15904 4.51154 9.16557 4.54321 9.16852 4.5755C9.20552 4.88479 9.18887 5.76785 9.05938 6.16903Z" fill="#F7AD7E"/>
<path d="M7.38346 5.08988C7.35416 5.06935 7.32003 5.06129 7.28651 5.06698C7.25299 5.07266 7.22201 5.09177 7.19848 5.12125C7.18098 5.15781 7.17414 5.20044 7.17906 5.24228C7.17895 5.284 7.18205 5.32565 7.18831 5.36667C7.21329 5.47961 7.26584 5.58077 7.33907 5.65691C7.35735 5.67855 7.37824 5.69669 7.40103 5.7107C7.42523 5.72492 7.45293 5.72772 7.47873 5.71855C7.49699 5.70849 7.5128 5.69289 7.52463 5.67326C7.53646 5.65362 7.5439 5.63062 7.54624 5.60648C7.56208 5.5037 7.55342 5.39758 7.52127 5.30055C7.49598 5.21369 7.44748 5.13955 7.38346 5.08988Z" fill="#F7AD7E"/>
<path d="M9.22309 5.07082C9.25234 5.05034 9.28637 5.04221 9.31984 5.04768C9.35332 5.05316 9.38435 5.07194 9.40807 5.10107C9.42576 5.13756 9.43291 5.18014 9.42842 5.2221C9.42822 5.26386 9.42481 5.3055 9.41824 5.34649C9.39326 5.45942 9.34071 5.56059 9.26748 5.63673C9.2497 5.65907 9.2287 5.6773 9.20552 5.69052C9.18144 5.70511 9.15374 5.70831 9.12782 5.69949C9.10886 5.68877 9.0926 5.67211 9.08073 5.65122C9.06885 5.63034 9.06181 5.60599 9.06031 5.5807C9.04434 5.47783 9.05334 5.37157 9.0862 5.27477C9.11201 5.19034 9.16013 5.11863 9.22309 5.07082Z" fill="#F7AD7E"/>
<path d="M9.18147 5.12237C9.17866 5.1016 9.17495 5.08103 9.17037 5.06073C9.14465 4.95055 9.11027 4.8436 9.06771 4.74136C9.00019 4.56542 8.9336 4.39172 8.86701 4.21578C8.85591 4.18889 8.84574 4.16087 8.83556 4.13398C8.83556 4.13398 8.83556 4.13398 8.83556 4.14182C8.82467 4.15433 8.81128 4.16321 8.79672 4.1676C8.70601 4.20392 8.61329 4.23238 8.51925 4.25276C8.3956 4.27094 8.27025 4.26183 8.14929 4.22587C8.04662 4.19449 7.94118 4.10148 7.83205 4.10596H7.81632C7.7635 4.10543 7.71204 4.12632 7.67014 4.16531C7.62824 4.2043 7.5983 4.25914 7.5851 4.32112C7.563 4.60692 7.50499 4.88695 7.41307 5.1515C7.29561 5.06746 7.28266 4.90048 7.28173 4.75592C7.28081 4.61136 7.28173 4.45672 7.28173 4.30767C7.27737 4.23517 7.28524 4.16234 7.30485 4.09364C7.31789 4.05641 7.33845 4.02376 7.36463 3.9987C7.39082 3.97363 7.42179 3.95695 7.45469 3.9502C7.51111 3.93899 7.57678 3.95916 7.62487 3.92666C7.64266 3.91031 7.65721 3.88934 7.66745 3.8653C7.67769 3.84126 7.68337 3.81475 7.68406 3.78771C7.69452 3.67995 7.73196 3.57866 7.79135 3.49746C7.92639 3.33049 8.18258 3.31928 8.38514 3.3854C8.58769 3.45152 8.76342 3.58823 8.9632 3.66892C9.09731 3.72383 9.25269 3.76081 9.33871 3.87848C9.3793 3.94004 9.40577 4.01348 9.41547 4.09139C9.44355 4.27349 9.43707 4.46094 9.39653 4.63955C9.35599 4.81817 9.28245 4.98327 9.18147 5.12237Z" fill="#E29F0B"/>
<path d="M9.22494 4.98118C9.21212 5.01249 9.19343 5.03974 9.17037 5.06074C9.14464 4.95055 9.11027 4.84361 9.0677 4.74136L8.83556 4.13398C8.88128 4.10493 8.93066 4.08524 8.98169 4.07571C9.05034 4.06192 9.12072 4.08123 9.17777 4.1295C9.21652 4.16998 9.24398 4.224 9.25639 4.28415C9.27644 4.37933 9.28608 4.47729 9.28506 4.57551C9.29837 4.71495 9.27746 4.85606 9.22494 4.98118Z" fill="url(#paint10_linear_605_189)"/>
<path d="M9.1121 4.04658C9.02336 4.08649 8.94058 4.14364 8.867 4.21579C8.8559 4.18889 8.84573 4.16088 8.83555 4.13398C8.83555 4.13398 8.83555 4.13398 8.83555 4.14183C8.82466 4.15434 8.81128 4.16322 8.79671 4.1676C8.706 4.20393 8.61328 4.23239 8.51924 4.25277C8.39559 4.27095 8.27025 4.26184 8.14928 4.22587C8.04661 4.1945 7.94118 4.10149 7.83204 4.10597H7.81631C7.81631 4.08804 7.82834 4.06899 7.83389 4.04882C7.88661 3.8684 7.92175 3.71263 8.11691 3.6566C8.23183 3.62668 8.35148 3.63837 8.46097 3.69022C8.56094 3.75037 8.66609 3.79697 8.77451 3.82917C8.84191 3.8313 8.90905 3.8403 8.97521 3.85607C9.01034 3.86936 9.04174 3.89421 9.06591 3.92785C9.09008 3.96148 9.10607 4.00258 9.1121 4.04658Z" fill="url(#paint11_linear_605_189)"/>
<path d="M8.08731 6.8896C7.36497 6.8896 6.75731 7.41293 6.59637 8.11445H6.93581C7.08842 7.60232 7.54717 7.23027 8.08731 7.23027C8.62745 7.23027 9.08713 7.60232 9.24066 8.11445H9.58102C9.41824 7.41293 8.80966 6.8896 8.08731 6.8896Z" fill="url(#paint12_linear_605_189)"/>
<path d="M7.20311 7.32776C7.27513 7.39409 7.33924 7.47215 7.39364 7.55973C7.40232 7.56905 7.40909 7.58068 7.41342 7.59371C7.41775 7.60673 7.41953 7.6208 7.41861 7.63481C7.41307 7.66506 7.38347 7.67963 7.3585 7.68635C7.30217 7.70096 7.24374 7.69865 7.18832 7.67963C7.20794 7.69971 7.22144 7.72719 7.22663 7.75767C7.23183 7.78815 7.22844 7.81986 7.21699 7.84773C7.20409 7.87481 7.18397 7.89578 7.15993 7.90718C7.1359 7.91859 7.10938 7.91975 7.08473 7.91048C7.09467 7.92503 7.10191 7.94202 7.10593 7.96028C7.10996 7.97854 7.11067 7.99763 7.10804 8.01626C7.1054 8.03488 7.09948 8.0526 7.09066 8.06819C7.08185 8.08378 7.07036 8.09688 7.05698 8.10659C6.99998 8.14191 6.93551 8.15558 6.872 8.14581L6.56956 8.13685C6.52547 8.1408 6.48147 8.12786 6.44377 8.09987C6.41927 8.0746 6.4029 8.03968 6.39753 8.00125C6.38589 7.88433 6.40671 7.76605 6.45672 7.66506C6.49229 7.55108 6.54747 7.44756 6.61858 7.36137C6.69967 7.27935 6.80067 7.23167 6.90619 7.22561C7.0117 7.21954 7.11597 7.25541 7.20311 7.32776Z" fill="#F7AD7E"/>
<path d="M9.21846 7.70878C9.1468 7.74061 9.08309 7.79425 9.03349 7.86454C9.01664 7.89012 9.00693 7.92151 9.00574 7.95419C9.00483 7.97043 9.00762 7.98665 9.01382 8.00108C9.02002 8.01551 9.02939 8.02759 9.04088 8.036C9.0862 8.06738 9.14355 8.02031 9.19442 8.036C9.18933 8.05211 9.18945 8.06996 9.19477 8.08596C9.20009 8.10197 9.21021 8.11494 9.22309 8.12229C9.24924 8.13616 9.27801 8.14119 9.30633 8.13686L9.63467 8.12453C9.65249 8.12667 9.67039 8.12154 9.68554 8.10996C9.69431 8.09904 9.70008 8.08511 9.70207 8.07007C9.70405 8.05502 9.70216 8.0396 9.69664 8.02591C9.67444 7.95195 9.60415 7.91385 9.5838 7.83429C9.56345 7.75472 9.5838 7.60344 9.47281 7.58439C9.39605 7.57206 9.28506 7.67068 9.21846 7.70878Z" fill="#F7AD7E"/>
<path d="M7.26878 2.69623L11.0433 8.09876L14.9732 8.06626L11.5973 2.7926L7.26878 2.69623Z" fill="url(#paint13_linear_605_189)"/>
<defs>
<linearGradient id="paint0_linear_605_189" x1="1.29578" y1="5.21313" x2="1.70133" y2="12.2533" gradientUnits="userSpaceOnUse">
<stop offset="0.01"/>
<stop offset="0.83" stop-opacity="0.07"/>
<stop offset="1" stop-opacity="0"/>
</linearGradient>
<linearGradient id="paint1_linear_605_189" x1="23.3944" y1="3.93899" x2="23.7999" y2="10.9792" gradientUnits="userSpaceOnUse">
<stop offset="0.01"/>
<stop offset="0.83" stop-opacity="0.07"/>
<stop offset="1" stop-opacity="0"/>
</linearGradient>
<linearGradient id="paint2_linear_605_189" x1="12.5786" y1="8.46519" x2="12.4917" y2="18.8924" gradientUnits="userSpaceOnUse">
<stop offset="0.01"/>
<stop offset="0.83" stop-opacity="0.07"/>
<stop offset="1" stop-opacity="0"/>
</linearGradient>
<linearGradient id="paint3_linear_605_189" x1="13.0291" y1="-2.89792" x2="9.66782" y2="37.4768" gradientUnits="userSpaceOnUse">
<stop offset="0.01"/>
<stop offset="0.83" stop-opacity="0.07"/>
<stop offset="1" stop-opacity="0"/>
</linearGradient>
<linearGradient id="paint4_linear_605_189" x1="12.2651" y1="19.6109" x2="12.8458" y2="7.92304" gradientUnits="userSpaceOnUse">
<stop offset="0.01"/>
<stop offset="0.83" stop-opacity="0.07"/>
<stop offset="1" stop-opacity="0"/>
</linearGradient>
<linearGradient id="paint5_linear_605_189" x1="12.2854" y1="11.2757" x2="12.9827" y2="24.7835" gradientUnits="userSpaceOnUse">
<stop offset="0.01"/>
<stop offset="0.83" stop-opacity="0.07"/>
<stop offset="1" stop-opacity="0"/>
</linearGradient>
<linearGradient id="paint6_linear_605_189" x1="12.4621" y1="10.814" x2="12.8678" y2="19.1026" gradientUnits="userSpaceOnUse">
<stop offset="0.01"/>
<stop offset="0.83" stop-opacity="0.07"/>
<stop offset="1" stop-opacity="0"/>
</linearGradient>
<linearGradient id="paint7_linear_605_189" x1="12.4047" y1="0.635399" x2="12.4047" y2="14.1557" gradientUnits="userSpaceOnUse">
<stop offset="0.01"/>
<stop offset="0.83" stop-opacity="0.07"/>
<stop offset="1" stop-opacity="0"/>
</linearGradient>
<linearGradient id="paint8_linear_605_189" x1="8.10858" y1="8.97955" x2="8.01225" y2="6.96726" gradientUnits="userSpaceOnUse">
<stop offset="0.01"/>
<stop offset="0.83" stop-opacity="0.07"/>
<stop offset="1" stop-opacity="0"/>
</linearGradient>
<linearGradient id="paint9_linear_605_189" x1="8.24916" y1="5.84293" x2="8.10429" y2="7.37384" gradientUnits="userSpaceOnUse">
<stop offset="0.01"/>
<stop offset="0.83" stop-opacity="0.07"/>
<stop offset="1" stop-opacity="0"/>
</linearGradient>
<linearGradient id="paint10_linear_605_189" x1="9.92046" y1="4.43431" x2="8.63166" y2="4.57322" gradientUnits="userSpaceOnUse">
<stop offset="0.01"/>
<stop offset="0.83" stop-opacity="0.07"/>
<stop offset="1" stop-opacity="0"/>
</linearGradient>
<linearGradient id="paint11_linear_605_189" x1="8.37865" y1="4.96549" x2="8.57168" y2="3.55058" gradientUnits="userSpaceOnUse">
<stop offset="0.01"/>
<stop offset="0.83" stop-opacity="0.07"/>
<stop offset="1" stop-opacity="0"/>
</linearGradient>
<linearGradient id="paint12_linear_605_189" x1="8.19552" y1="5.15151" x2="7.76686" y2="13.1757" gradientUnits="userSpaceOnUse">
<stop offset="0.01"/>
<stop offset="0.83" stop-opacity="0.07"/>
<stop offset="1" stop-opacity="0"/>
</linearGradient>
<linearGradient id="paint13_linear_605_189" x1="11.5067" y1="-1.41086" x2="8.79167" y2="31.1926" gradientUnits="userSpaceOnUse">
<stop offset="0.02" stop-color="white" stop-opacity="0"/>
<stop offset="0.39" stop-color="white" stop-opacity="0.39"/>
<stop offset="1" stop-color="white"/>
</linearGradient>
</defs>
</svg>
