<svg width="25" height="25" viewBox="0 0 25 25" fill="none" xmlns="http://www.w3.org/2000/svg">
<path d="M14.3227 2.77299C14.3227 2.77299 14.5853 3.46924 14.4789 3.57862C14.3725 3.688 14.1235 3.54334 14.1235 3.54334" fill="white"/>
<path d="M14.3668 3.6786C14.2719 3.67252 14.1794 3.64439 14.0963 3.59627C14.0898 3.59258 14.084 3.58758 14.0793 3.58155C14.0746 3.57553 14.0711 3.5686 14.069 3.56117C14.0669 3.55374 14.0662 3.54595 14.067 3.53825C14.0678 3.53055 14.0701 3.52309 14.0737 3.5163C14.081 3.50275 14.0933 3.49278 14.1077 3.4886C14.1221 3.48441 14.1376 3.48633 14.1506 3.49395C14.2197 3.53276 14.377 3.59627 14.4393 3.53747C14.4789 3.48689 14.3997 3.13995 14.2706 2.79653C14.2651 2.78202 14.2653 2.76582 14.2712 2.75148C14.2772 2.73715 14.2884 2.72585 14.3023 2.72008C14.3163 2.71431 14.3319 2.71454 14.3457 2.72071C14.3595 2.72689 14.3703 2.73851 14.3759 2.75301C14.4585 2.97294 14.6396 3.49866 14.5185 3.62097C14.4983 3.64081 14.4745 3.65616 14.4484 3.66607C14.4223 3.67598 14.3946 3.68024 14.3668 3.6786Z" fill="#231F20"/>
<path d="M14.4449 1.42755C14.7042 1.83095 14.48 2.48604 14.3861 2.92825C14.2986 3.33283 14.2031 3.73505 14.0997 4.13492C14.0341 4.38896 13.3934 4.25253 13.2961 4.15021L12.7301 5.63914C12.4638 5.50552 12.2126 5.34184 11.9808 5.15106C11.5156 4.78883 11.5846 4.36896 11.5846 4.36896C11.7816 3.55746 12.2321 2.68715 12.5603 1.91916C12.6232 1.74879 12.7204 1.59439 12.8456 1.46636C12.9587 1.37151 13.0876 1.29897 13.2259 1.25232C13.5406 1.13471 13.905 1.04297 14.2027 1.20645C14.3003 1.25753 14.3836 1.33364 14.4449 1.42755Z" fill="white"/>
<path d="M12.7301 5.69795C12.723 5.69908 12.7157 5.69908 12.7086 5.69795C12.4382 5.56156 12.1828 5.39516 11.9468 5.20164C11.4601 4.82176 11.5257 4.37837 11.528 4.36308C11.6786 3.74681 11.9649 3.11172 12.2434 2.4978C12.3351 2.29316 12.4256 2.09322 12.5082 1.89917C12.5744 1.72172 12.6767 1.56124 12.8082 1.42873C12.9268 1.32705 13.0622 1.24855 13.2078 1.19704C13.4828 1.08884 13.8869 0.961822 14.2265 1.15353C14.3317 1.20809 14.4224 1.2889 14.4902 1.38874C14.7223 1.75098 14.5932 2.2861 14.4902 2.71538C14.471 2.793 14.4529 2.86592 14.4393 2.93413C14.3521 3.33753 14.2559 3.74564 14.1529 4.14433C14.1393 4.18771 14.1145 4.22635 14.0811 4.25602C14.0478 4.28569 14.0072 4.30524 13.9639 4.31251C13.7465 4.3511 13.5231 4.3229 13.321 4.23136L12.781 5.65561C12.7749 5.66997 12.7641 5.68163 12.7505 5.68854C12.7441 5.69267 12.7373 5.69584 12.7301 5.69795ZM13.828 1.17469C13.6276 1.18231 13.4302 1.22733 13.2451 1.30759C13.1141 1.35295 12.9916 1.42138 12.8829 1.50988C12.7634 1.63234 12.6711 1.78045 12.6124 1.94386C12.5286 2.13792 12.4381 2.33903 12.3452 2.54367C12.0759 3.15288 11.7861 3.78327 11.6389 4.38425C11.6389 4.39484 11.5857 4.76884 12.0147 5.10402C12.2277 5.27626 12.455 5.42857 12.6939 5.55917L13.2372 4.12904C13.2405 4.11973 13.2462 4.11147 13.2535 4.10508C13.2608 4.09869 13.2697 4.09439 13.2791 4.09258C13.2882 4.09087 13.2976 4.09147 13.3065 4.09434C13.3153 4.0972 13.3234 4.10225 13.33 4.10905C13.5154 4.20682 13.7261 4.24022 13.9311 4.20431C13.9937 4.18628 14.0314 4.15805 14.0442 4.11963C14.1472 3.72211 14.2435 3.31636 14.3295 2.91531C14.3442 2.84592 14.3623 2.77065 14.3816 2.69303C14.4789 2.28493 14.6011 1.77803 14.3974 1.46049C14.3398 1.37407 14.2619 1.30442 14.171 1.2582C14.0649 1.20196 13.9472 1.17331 13.828 1.17469Z" fill="#231F20"/>
<path d="M14.1529 3.83031C14.0419 3.82754 13.9355 3.78394 13.8526 3.70726C13.7697 3.63059 13.7157 3.52582 13.7001 3.41162" fill="white"/>
<path d="M14.1518 3.88912C14.0265 3.88656 13.9062 3.83786 13.8123 3.75169C13.7184 3.66553 13.657 3.54751 13.639 3.41868C13.6373 3.41111 13.6371 3.40327 13.6384 3.39562C13.6397 3.38796 13.6424 3.38065 13.6464 3.37408C13.6504 3.36752 13.6556 3.36185 13.6617 3.35739C13.6678 3.35294 13.6747 3.34978 13.682 3.34811C13.6892 3.34639 13.6967 3.34619 13.704 3.34751C13.7113 3.34883 13.7183 3.35166 13.7245 3.35583C13.7307 3.35999 13.7361 3.36541 13.7403 3.37176C13.7444 3.37811 13.7473 3.38527 13.7488 3.39281C13.7611 3.49491 13.8086 3.58893 13.8825 3.65747C13.9563 3.72601 14.0516 3.76444 14.1506 3.76563C14.1657 3.76563 14.18 3.77182 14.1907 3.78285C14.2013 3.79388 14.2072 3.80884 14.2072 3.82443C14.2072 3.84003 14.2013 3.85499 14.1907 3.86601C14.18 3.87704 14.1657 3.88324 14.1506 3.88324L14.1518 3.88912Z" fill="#231F20"/>
<path d="M13.2961 4.14904C13.1184 4.04309 12.9738 3.88633 12.8795 3.69742C12.8795 3.69742 12.5739 4.52068 13.0459 4.80647L13.2961 4.14904Z" fill="#231F20"/>
<path d="M13.0459 4.86646C13.0359 4.86666 13.0261 4.8638 13.0176 4.85823C12.5105 4.54539 12.8139 3.71271 12.8274 3.68213C12.8316 3.67116 12.8389 3.66175 12.8483 3.65512C12.8576 3.64849 12.8687 3.64494 12.8801 3.64494C12.8914 3.64494 12.9025 3.64849 12.9119 3.65512C12.9213 3.66175 12.9285 3.67116 12.9327 3.68213C13.0218 3.85616 13.1564 4.00049 13.321 4.09847C13.3329 4.10544 13.342 4.11667 13.3466 4.13007C13.3512 4.14348 13.3509 4.15816 13.3459 4.17139L13.0946 4.82882C13.0916 4.83688 13.0868 4.84413 13.0808 4.85003C13.0747 4.85593 13.0674 4.86034 13.0595 4.86293C13.0552 4.86481 13.0506 4.866 13.0459 4.86646ZM12.8942 3.84914C12.8376 4.06554 12.7663 4.50069 13.0199 4.7171L13.2259 4.17492C13.0965 4.08905 12.984 3.97851 12.8942 3.84914Z" fill="#231F20"/>
<path d="M14.6498 2.55544C14.6611 2.50017 13.5904 2.26965 13.5904 2.26965C13.5904 2.26965 13.4285 2.40726 13.6322 2.69305C13.836 2.97884 14.5378 3.11997 14.6498 2.55544Z" fill="#231F20"/>
<path d="M14.1789 3.00235C14.0669 3.00392 13.9559 2.98024 13.8535 2.93293C13.7511 2.88562 13.6598 2.81582 13.5858 2.72832C13.3538 2.40136 13.5519 2.22613 13.5541 2.22495C13.5606 2.21922 13.5682 2.21508 13.5765 2.21284C13.5847 2.2106 13.5933 2.21032 13.6017 2.21201C14.7336 2.45429 14.7189 2.50251 14.7053 2.56484C14.6896 2.66736 14.6442 2.76244 14.575 2.8373C14.5057 2.91215 14.4161 2.96319 14.3182 2.98353C14.2726 2.99528 14.2259 3.00159 14.1789 3.00235ZM13.613 2.33433C13.5881 2.37431 13.5519 2.47899 13.6798 2.65893C13.7568 2.74588 13.8538 2.81105 13.9617 2.84829C14.0696 2.88553 14.1849 2.89362 14.2967 2.8718C14.3671 2.85774 14.4321 2.82285 14.4839 2.77132C14.5357 2.71978 14.5721 2.6538 14.5887 2.58131C14.4698 2.53309 14.0261 2.42489 13.6107 2.33433H13.613Z" fill="#231F20"/>
<path d="M13.5904 2.32844H13.5779L13.184 2.23317C13.1766 2.2314 13.1695 2.22812 13.1633 2.22352C13.1571 2.21893 13.1518 2.2131 13.1478 2.20639C13.1437 2.19967 13.141 2.19219 13.1398 2.18438C13.1385 2.17656 13.1387 2.16857 13.1404 2.16084C13.1421 2.15312 13.1453 2.14582 13.1497 2.13937C13.1541 2.13291 13.1597 2.12743 13.1662 2.12322C13.1727 2.11902 13.1799 2.11618 13.1874 2.11486C13.1949 2.11355 13.2026 2.11379 13.21 2.11556L13.6028 2.21083C13.6178 2.21254 13.6316 2.22038 13.641 2.23263C13.6505 2.24487 13.6548 2.26051 13.6532 2.2761C13.6515 2.2917 13.644 2.30597 13.6322 2.31579C13.6204 2.3256 13.6054 2.33015 13.5904 2.32844Z" fill="#231F20"/>
<path d="M14.5276 2.04735C14.6135 1.99825 14.6788 1.91779 14.7109 1.82154C14.732 1.71829 14.7154 1.61061 14.6645 1.51928C14.4778 1.13587 14.0193 0.958284 13.6096 1.01238C13.4263 1.0328 13.2514 1.10297 13.1025 1.21585C12.9033 1.37462 12.6395 1.86858 12.9519 2.05323C13.0683 2.0981 13.1927 2.11577 13.3164 2.10497C13.5021 2.11674 13.6854 2.15555 13.8711 2.16966C14.0968 2.20077 14.3263 2.15801 14.5276 2.04735Z" fill="white"/>
<path d="M14.0193 2.23435C13.9661 2.23435 13.9152 2.23435 13.8665 2.23435C13.7748 2.22729 13.6832 2.21436 13.5949 2.2026C13.5066 2.19083 13.407 2.17554 13.313 2.16966H13.2304C13.1252 2.1775 13.0198 2.15811 12.9236 2.11321C12.8733 2.084 12.8313 2.04158 12.8017 1.99019C12.7721 1.9388 12.756 1.88024 12.755 1.82036C12.7391 1.57339 12.9282 1.28289 13.0719 1.16998C13.2284 1.04995 13.4128 0.975272 13.6062 0.953584C14.0748 0.892427 14.5332 1.11353 14.7177 1.49223C14.7758 1.59636 14.794 1.7194 14.7687 1.83683C14.7329 1.94774 14.6586 2.04082 14.5604 2.09792C14.3957 2.19472 14.2084 2.24196 14.0193 2.23435ZM13.7613 1.05826C13.7128 1.0585 13.6645 1.06164 13.6164 1.06766C13.4429 1.08723 13.2774 1.15373 13.1364 1.26054C13.0142 1.35816 12.8523 1.61337 12.8648 1.80978C12.8656 1.84913 12.8766 1.88754 12.8965 1.92103C12.9164 1.95452 12.9445 1.98189 12.978 2.00031C13.0575 2.03415 13.1436 2.04825 13.2293 2.04147C13.2598 2.04147 13.2893 2.04147 13.3176 2.04147C13.4149 2.04147 13.5134 2.06029 13.6073 2.0744C13.7013 2.08851 13.7839 2.09792 13.8722 2.10498C14.0868 2.13329 14.3045 2.09222 14.4959 1.98737C14.5697 1.94599 14.6261 1.87771 14.6543 1.79567C14.6711 1.70686 14.6558 1.61475 14.6113 1.53693C14.524 1.38536 14.399 1.2611 14.2494 1.17726C14.0997 1.09343 13.9311 1.05312 13.7613 1.06061V1.05826Z" fill="#231F20"/>
<path d="M12.6724 3.59744L12.695 3.58451C13.0346 3.37869 13.1591 2.9059 13.1829 2.55895C13.1987 2.3155 13.2746 1.92739 13.4489 1.73569C13.6628 1.50047 14.7936 1.98972 14.7936 1.98972C15.1614 0.316142 12.7675 -0.480073 11.6865 0.460802C11.4381 0.691854 11.2443 0.979238 11.12 1.30067C10.9958 1.6221 10.9444 1.96895 10.97 2.31433C11.0005 2.82357 11.253 3.66919 11.837 3.71388C12.0097 3.72685 12.1832 3.71975 12.3543 3.69271C12.4647 3.67967 12.5722 3.64747 12.6724 3.59744Z" fill="#8022D9"/>
<path d="M12.0057 3.78092C11.9479 3.78092 11.8925 3.78092 11.8336 3.77386C11.219 3.72799 10.9462 2.88003 10.9134 2.32021C10.8884 1.96592 10.9416 1.61037 11.0692 1.28076C11.1967 0.951147 11.3951 0.656199 11.6491 0.418468C12.3283 -0.17546 13.4375 -0.0813718 14.1223 0.352607C14.7302 0.736013 14.995 1.337 14.849 1.99914C14.8473 2.0075 14.8437 2.01534 14.8386 2.02207C14.8335 2.02879 14.827 2.03422 14.8196 2.03795C14.8122 2.04169 14.8041 2.04364 14.7958 2.04364C14.7876 2.04364 14.7795 2.04169 14.7721 2.03795C14.3193 1.84036 13.6186 1.62632 13.4907 1.7698C13.3413 1.93563 13.2564 2.2861 13.2383 2.55896C13.227 2.74478 13.1534 3.37046 12.7244 3.63155L12.6995 3.64567C12.5928 3.69998 12.478 3.73498 12.36 3.74916C12.2428 3.769 12.1244 3.77962 12.0057 3.78092ZM12.8682 0.116212C12.4544 0.100592 12.0486 0.237664 11.7227 0.503147C11.4818 0.728967 11.2939 1.00905 11.1732 1.32195C11.0526 1.63486 11.0024 1.9723 11.0266 2.30845C11.056 2.80711 11.3039 3.61156 11.8415 3.65272C12.01 3.6657 12.1794 3.65859 12.3464 3.63155C12.4505 3.61888 12.5519 3.58828 12.6463 3.541L12.6667 3.52924C13.0482 3.29402 13.1195 2.72126 13.1263 2.54955C13.1444 2.2767 13.2281 1.88741 13.407 1.68865C13.6175 1.45343 14.463 1.78038 14.7517 1.90152C14.8536 1.31347 14.6057 0.791289 14.0635 0.44787C13.7002 0.229631 13.2878 0.115203 12.8682 0.116212Z" fill="#231F20"/>
<path d="M12.3713 3.31283C12.3601 3.31262 12.3493 3.30907 12.3401 3.3026C12.3308 3.29613 12.3236 3.28702 12.3192 3.27637C12.3011 3.23285 11.8947 2.20495 12.4777 1.31347C12.5785 1.14904 12.7255 1.02073 12.8988 0.945855C13.0721 0.870982 13.2633 0.853155 13.4466 0.894781C13.888 0.973579 14.3125 1.30289 14.3691 1.52399C14.371 1.53148 14.3714 1.53928 14.3704 1.54695C14.3693 1.55461 14.3668 1.56199 14.3631 1.56865C14.3593 1.57532 14.3543 1.58114 14.3483 1.58579C14.3424 1.59043 14.3356 1.59381 14.3284 1.59573C14.3139 1.5997 14.2986 1.5976 14.2857 1.5899C14.2728 1.58219 14.2633 1.56949 14.2593 1.55457C14.2174 1.39109 13.8416 1.08413 13.4274 1.01121C13.2656 0.974568 13.0969 0.990192 12.944 1.05599C12.791 1.12179 12.6611 1.23461 12.5716 1.37933C12.0227 2.21789 12.42 3.22109 12.4234 3.2305C12.4263 3.2376 12.428 3.24525 12.4281 3.253C12.4282 3.26076 12.4269 3.26846 12.4242 3.27568C12.4214 3.28289 12.4174 3.28947 12.4122 3.29504C12.407 3.30061 12.4008 3.30506 12.3939 3.30812C12.3866 3.31082 12.379 3.3124 12.3713 3.31283Z" fill="#D1D3D4"/>
<path d="M16.8231 8.78872C16.813 8.78875 16.8032 8.78605 16.7944 8.78089C16.7857 8.77574 16.7784 8.7683 16.7733 8.75932L15.8983 7.18453C15.8936 7.17788 15.8904 7.17028 15.8887 7.16224C15.8871 7.15419 15.8871 7.14587 15.8887 7.13782C15.8903 7.12977 15.8936 7.12216 15.8982 7.11549C15.9029 7.10883 15.9088 7.10324 15.9156 7.09911C15.9225 7.09497 15.9301 7.09238 15.938 7.09149C15.9458 7.0906 15.9538 7.09143 15.9613 7.09394C15.9689 7.09645 15.9758 7.10058 15.9817 7.10605C15.9876 7.11153 15.9924 7.11823 15.9957 7.12573L16.8717 8.70052C16.8756 8.70713 16.8781 8.71447 16.8791 8.72211C16.8802 8.72975 16.8797 8.73752 16.8778 8.74498C16.8759 8.75244 16.8726 8.75943 16.8681 8.76553C16.8635 8.77163 16.8578 8.77671 16.8514 8.78049C16.8429 8.78594 16.8331 8.78879 16.8231 8.78872Z" fill="#231F20"/>
<path d="M15.7229 7.72672C15.7078 7.72664 15.6933 7.72078 15.6821 7.71026C15.6717 7.69907 15.6658 7.68409 15.6658 7.66851C15.6658 7.65292 15.6717 7.63795 15.6821 7.62676C15.7093 7.57736 15.921 6.91287 16.0477 6.50711C16.0498 6.49951 16.0534 6.49242 16.0582 6.48627C16.0629 6.48012 16.0689 6.47504 16.0756 6.47133C16.0823 6.46762 16.0897 6.46535 16.0973 6.46467C16.1048 6.46398 16.1125 6.4649 16.1197 6.46735C16.127 6.4698 16.1336 6.47375 16.1394 6.47894C16.1451 6.48414 16.1498 6.49049 16.1531 6.49761C16.1564 6.50472 16.1583 6.51246 16.1587 6.52036C16.1591 6.52826 16.1579 6.53615 16.1553 6.54357C15.8055 7.66439 15.7749 7.69732 15.7625 7.71026C15.7517 7.7207 15.7376 7.72658 15.7229 7.72672Z" fill="#231F20"/>
<path d="M18.6579 8.62994C18.6579 8.62994 19.1277 8.9028 19.2046 9.42969C19.3088 10.1353 18.9477 10.3706 18.9477 10.3706L18.6579 8.62994Z" fill="#231F20"/>
<path d="M2.06411 15.6748C2.06411 15.6748 1.64643 15.5219 1.46193 15.5983C1.27743 15.6748 0.00403021 17.8152 0.122881 17.9199C0.241731 18.0246 0.838248 17.9199 0.838248 17.9199L2.06411 15.6748Z" fill="white"/>
<path d="M1.5955 15.5771C1.75527 15.5872 1.91295 15.6201 2.06411 15.6747L0.838256 17.9199C0.680287 17.9472 0.520674 17.9629 0.36059 17.967C0.278625 17.976 0.19592 17.9596 0.122889 17.9199C0.00403888 17.8152 1.27631 15.6748 1.46194 15.5983C1.5048 15.5827 1.5501 15.5755 1.5955 15.5771ZM1.5955 15.4595C1.53576 15.4577 1.47621 15.4676 1.42006 15.4889C1.1733 15.5901 0.0617662 17.5318 0.00517068 17.8529C-0.00202068 17.8806 -0.00170528 17.9099 0.00608262 17.9375C0.0138705 17.9651 0.0288294 17.99 0.0493151 18.0093C0.141568 18.071 0.251576 18.0976 0.36059 18.0846C0.527089 18.0802 0.69311 18.0641 0.857499 18.0363L0.910698 18.0269L0.936732 17.9775L2.16259 15.7324L2.22937 15.6148L2.10147 15.5677C1.9382 15.5092 1.76794 15.4744 1.5955 15.4642V15.4595Z" fill="#231F20"/>
<path d="M3.58201 24.9412C5.23299 24.9412 6.57138 23.5506 6.57138 21.8351C6.57138 20.1197 5.23299 18.7291 3.58201 18.7291C1.93102 18.7291 0.592636 20.1197 0.592636 21.8351C0.592636 23.5506 1.93102 24.9412 3.58201 24.9412Z" fill="#231F20"/>
<path d="M3.58653 25C2.98409 25 2.39519 24.8144 1.89428 24.4666C1.39337 24.1189 1.00296 23.6246 0.77242 23.0463C0.541878 22.468 0.481557 21.8316 0.599087 21.2177C0.716616 20.6038 1.00672 20.0398 1.4327 19.5972C1.85869 19.1546 2.40143 18.8532 2.99229 18.7311C3.58315 18.609 4.19559 18.6716 4.75217 18.9112C5.30875 19.1507 5.78446 19.5564 6.11916 20.0768C6.45385 20.5973 6.6325 21.2092 6.6325 21.8351C6.6316 22.6742 6.3104 23.4787 5.73936 24.072C5.16832 24.6653 4.39409 24.9991 3.58653 25ZM3.58653 18.7879C3.00648 18.7879 2.43946 18.9666 1.95716 19.3014C1.47487 19.6363 1.09897 20.1122 0.876994 20.669C0.655019 21.2258 0.59694 21.8385 0.710102 22.4296C0.823264 23.0207 1.10258 23.5637 1.51274 23.9899C1.9229 24.416 2.44547 24.7063 3.01437 24.8238C3.58327 24.9414 4.17296 24.8811 4.70885 24.6504C5.24475 24.4198 5.70279 24.0292 6.02504 23.5281C6.3473 23.027 6.51931 22.4378 6.51931 21.8351C6.51841 21.0272 6.20913 20.2527 5.65932 19.6814C5.10951 19.1102 4.36407 18.7888 3.58653 18.7879Z" fill="#231F20"/>
<path d="M3.58201 24.0309C4.74914 24.0309 5.69529 23.0478 5.69529 21.8351C5.69529 20.6225 4.74914 19.6394 3.58201 19.6394C2.41488 19.6394 1.46873 20.6225 1.46873 21.8351C1.46873 23.0478 2.41488 24.0309 3.58201 24.0309Z" fill="white"/>
<path d="M3.58653 19.6394C4.00477 19.6394 4.41362 19.7682 4.76135 20.0097C5.10909 20.2512 5.3801 20.5943 5.5401 20.9958C5.7001 21.3974 5.74191 21.8391 5.66023 22.2653C5.57855 22.6915 5.37706 23.083 5.08125 23.3902C4.78543 23.6974 4.40857 23.9065 3.99834 23.9912C3.58811 24.0758 3.16294 24.0321 2.7766 23.8657C2.39026 23.6992 2.06012 23.4175 1.82792 23.056C1.59572 22.6946 1.4719 22.2697 1.47213 21.8351C1.47213 21.5467 1.52683 21.2611 1.6331 20.9946C1.73937 20.7281 1.89514 20.486 2.09149 20.2821C2.28785 20.0782 2.52095 19.9165 2.77747 19.8062C3.034 19.6959 3.30892 19.6392 3.58653 19.6394ZM3.58653 19.5218C3.14586 19.5215 2.71502 19.6571 2.34852 19.9113C1.98202 20.1656 1.69633 20.527 1.52759 20.95C1.35884 21.373 1.31464 21.8385 1.40055 22.2876C1.48647 22.7367 1.69865 23.1492 2.01025 23.4729C2.32186 23.7967 2.71888 24.0172 3.1511 24.1064C3.58331 24.1957 4.0313 24.1498 4.43839 23.9745C4.84548 23.7991 5.19337 23.5023 5.43805 23.1215C5.68274 22.7407 5.81322 22.293 5.813 21.8351C5.8121 21.2219 5.57724 20.634 5.15989 20.2004C4.74254 19.7667 4.17675 19.5227 3.58653 19.5218Z" fill="#231F20"/>
<path d="M3.58202 22.7066C4.04524 22.7066 4.42076 22.3164 4.42076 21.8351C4.42076 21.3538 4.04524 20.9637 3.58202 20.9637C3.11879 20.9637 2.74327 21.3538 2.74327 21.8351C2.74327 22.3164 3.11879 22.7066 3.58202 22.7066Z" fill="#D1D3D4"/>
<path d="M4.42075 19.1148C3.27526 19.6394 2.22145 21.3694 3.95894 21.8351C4.94936 22.1009 10.8296 21.9527 10.8296 21.9527L9.49397 19.483C9.49397 19.483 5.53569 18.6032 4.42075 19.1148Z" fill="#231F20"/>
<path d="M7.5482 22.0551C6.0156 22.0551 4.42526 22.0221 3.94533 21.8928C3.19601 21.6917 3.01038 21.2777 2.98548 20.9648C2.92888 20.2392 3.66462 19.3947 4.3981 19.0607C5.51643 18.5468 9.34455 19.3959 9.50641 19.4324C9.51417 19.4342 9.52149 19.4376 9.52792 19.4424C9.53435 19.4473 9.53974 19.4535 9.54376 19.4606L10.8794 21.9304C10.8839 21.9395 10.8862 21.9496 10.8862 21.9598C10.8862 21.97 10.8839 21.9801 10.8794 21.9892C10.8742 21.9979 10.8671 22.0051 10.8586 22.0102C10.8501 22.0153 10.8406 22.0182 10.8307 22.0186C10.7074 22.0174 9.16004 22.0551 7.5482 22.0551ZM5.51077 19.0137C5.058 19.0137 4.67994 19.0572 4.43885 19.1678C3.7597 19.4794 3.04207 20.2897 3.09414 20.9554C3.1247 21.3482 3.42692 21.6328 3.9691 21.7787C4.87463 22.021 9.96823 21.9163 10.73 21.8963L9.45321 19.5382C9.19853 19.4853 6.99583 19.0137 5.51077 19.0137Z" fill="#231F20"/>
<path d="M21.954 24.9412C23.605 24.9412 24.9434 23.5506 24.9434 21.8351C24.9434 20.1197 23.605 18.7291 21.954 18.7291C20.303 18.7291 18.9647 20.1197 18.9647 21.8351C18.9647 23.5506 20.303 24.9412 21.954 24.9412Z" fill="#231F20"/>
<path d="M21.954 25C21.3516 25 20.7627 24.8144 20.2618 24.4666C19.7609 24.1189 19.3705 23.6246 19.1399 23.0463C18.9094 22.468 18.8491 21.8316 18.9666 21.2177C19.0841 20.6038 19.3742 20.0398 19.8002 19.5972C20.2262 19.1546 20.7689 18.8532 21.3598 18.7311C21.9507 18.609 22.5631 18.6716 23.1197 18.9112C23.6763 19.1507 24.152 19.5564 24.4867 20.0768C24.8214 20.5973 25 21.2092 25 21.8351C24.9991 22.6742 24.6779 23.4787 24.1069 24.072C23.5358 24.6653 22.7616 24.9991 21.954 25ZM21.954 18.7879C21.374 18.7879 20.807 18.9666 20.3247 19.3014C19.8424 19.6363 19.4665 20.1122 19.2445 20.669C19.0225 21.2258 18.9644 21.8385 19.0776 22.4296C19.1908 23.0207 19.4701 23.5637 19.8802 23.9899C20.2904 24.416 20.813 24.7063 21.3819 24.8238C21.9508 24.9414 22.5405 24.8811 23.0764 24.6504C23.6123 24.4198 24.0703 24.0292 24.3926 23.5281C24.7148 23.027 24.8868 22.4378 24.8868 21.8351C24.8856 21.0273 24.5762 20.253 24.0265 19.6818C23.4768 19.1106 22.7315 18.7891 21.954 18.7879Z" fill="#231F20"/>
<path d="M21.954 24.0309C23.1212 24.0309 24.0673 23.0478 24.0673 21.8351C24.0673 20.6225 23.1212 19.6394 21.954 19.6394C20.7869 19.6394 19.8408 20.6225 19.8408 21.8351C19.8408 23.0478 20.7869 24.0309 21.954 24.0309Z" fill="white"/>
<path d="M21.954 19.6394C22.3723 19.6391 22.7813 19.7678 23.1292 20.0091C23.4771 20.2504 23.7482 20.5935 23.9084 20.995C24.0686 21.3965 24.1106 21.8383 24.029 22.2646C23.9475 22.6909 23.7461 23.0825 23.4503 23.3898C23.1545 23.6971 22.7777 23.9064 22.3674 23.9911C21.9571 24.0758 21.5319 24.0322 21.1455 23.8658C20.7591 23.6994 20.4289 23.4176 20.1966 23.0561C19.9644 22.6947 19.8405 22.2697 19.8408 21.8351C19.8408 21.5468 19.8954 21.2613 20.0016 20.9949C20.1078 20.7284 20.2635 20.4864 20.4597 20.2825C20.656 20.0786 20.8889 19.9169 21.1453 19.8065C21.4017 19.6962 21.6765 19.6394 21.954 19.6394ZM21.954 19.5218C21.5137 19.5229 21.0835 19.6597 20.7179 19.9148C20.3523 20.1699 20.0676 20.5318 19.8999 20.9549C19.7322 21.378 19.689 21.8433 19.7757 22.2919C19.8624 22.7405 20.0751 23.1524 20.387 23.4754C20.6988 23.7985 21.0959 24.0183 21.5279 24.107C21.9599 24.1957 22.4076 24.1493 22.8143 23.9738C23.2209 23.7982 23.5684 23.5014 23.8128 23.1207C24.0572 22.7401 24.1875 22.2927 24.1873 21.8351C24.1864 21.2217 23.9514 20.6336 23.5338 20.1999C23.1162 19.7663 22.5501 19.5224 21.9597 19.5218H21.954Z" fill="#231F20"/>
<path d="M21.954 22.7066C22.4173 22.7066 22.7928 22.3164 22.7928 21.8351C22.7928 21.3538 22.4173 20.9637 21.954 20.9637C21.4908 20.9637 21.1153 21.3538 21.1153 21.8351C21.1153 22.3164 21.4908 22.7066 21.954 22.7066Z" fill="#D1D3D4"/>
<path d="M18.1135 10.9574L16.4303 11.9371C16.4303 11.9371 17.5747 17.6047 17.4739 18.1998C17.3732 18.7949 17.1344 19.1795 16.6997 19.2148C16.265 19.2501 13.1297 19.2148 12.4562 19.2148C11.7827 19.2148 13.527 14.3516 13.527 14.3516H4.50903C4.50903 14.3516 2.69118 14.7715 1.61361 16.1711C0.536028 17.5706 -0.113688 20.2615 0.122881 20.4732C0.35945 20.6849 9.35134 20.5638 9.35134 20.5638L10.301 22.0833H17.509C18.5866 22.0833 19.7649 18.9702 19.7649 18.9702H24.9796C24.9796 18.9702 24.3288 17.4189 22.8811 17.0343C21.4333 16.6497 20.804 16.6956 20.804 16.6956C20.804 16.6956 21.5114 16.5204 21.5114 15.8206C21.5114 15.1208 19.225 11.6219 18.1135 10.9574Z" fill="#8022D9"/>
<path d="M4.23172 14.4305C4.23172 14.4305 2.7942 13.232 3.58654 12.9168C4.37887 12.6016 12.8852 12.5322 13.5315 13.1967C14.1778 13.8612 14.0103 14.5175 13.4183 14.6692C12.8263 14.8209 4.23172 14.4305 4.23172 14.4305Z" fill="#231F20"/>
<path d="M16.6657 12.0947C16.5978 12.0771 15.3674 10.7128 15.3686 9.80251C15.3697 8.89221 16.1213 8.4206 16.8559 8.50881C17.4501 8.55732 18.0472 8.55457 18.6409 8.50057L18.9805 10.5223L17.6584 10.7352L18.0965 11.2609L16.6657 12.0947Z" fill="#8022D9"/>
<path d="M11.8665 10.8598C11.7533 10.8363 7.79837 10.2965 7.79837 10.2965C7.79837 10.2965 6.39254 12.9027 7.78478 13.4719C9.17703 14.0412 14.0895 13.9283 14.0895 13.9283L13.2304 18.3798H15.072C15.072 18.3798 16.8446 13.7612 16.3511 12.5946C15.8576 11.4279 11.5495 11.2926 11.5495 11.2926L11.8665 10.8598Z" fill="#231F20"/>
<path d="M7.39427 10.9574C7.39427 10.9574 8.62805 7.27155 9.5449 5.61562C9.96258 4.86292 10.6496 4.1502 11.5371 4.13138C11.9298 4.12315 12.2626 4.18078 12.5637 4.45246C12.9688 4.81573 13.2538 5.30198 13.3787 5.8426C13.6356 6.97753 12.0351 10.8022 11.794 11.4467L7.39427 10.9574Z" fill="#8022D9"/>
<path d="M14.3759 9.20624C14.3759 9.20624 15.9244 9.25328 16.1496 9.2768C16.3749 9.30033 16.8005 9.68608 16.7439 9.90131C16.6873 10.1165 16.1032 9.8872 15.9357 9.80134C15.7682 9.71549 14.2876 9.99069 14.2876 9.99069L14.3759 9.20624Z" fill="white"/>
<path d="M14.3759 9.20624C14.3759 9.20624 15.9244 9.25328 16.1496 9.2768C16.3749 9.30032 16.8005 9.68608 16.7439 9.90131C16.7269 9.96599 16.6612 9.99069 16.5741 9.99069C16.3521 9.96767 16.1359 9.90354 15.9357 9.80134C15.8929 9.78719 15.848 9.7816 15.8032 9.78487C15.3946 9.78487 14.2876 9.99069 14.2876 9.99069L14.3759 9.20624ZM14.2752 9.08863L14.2627 9.19565L14.1744 9.97893L14.1563 10.1365L14.3069 10.1095C14.3182 10.1095 15.4093 9.90484 15.8032 9.90484C15.8322 9.90162 15.8614 9.90162 15.8904 9.90484C16.103 10.0143 16.3333 10.082 16.5695 10.1048C16.7722 10.1048 16.8321 9.99422 16.8491 9.92836C16.8592 9.8698 16.8569 9.80966 16.8422 9.75215C16.8276 9.69464 16.8009 9.64118 16.7642 9.59552C16.6352 9.40029 16.3601 9.17683 16.1564 9.15566C15.93 9.13214 14.4382 9.08745 14.3748 9.0851H14.2706L14.2752 9.08863Z" fill="#231F20"/>
<path d="M9.18949 20.1133C9.17757 20.1134 9.16599 20.1093 9.15666 20.1016C9.15063 20.097 9.14552 20.0913 9.14163 20.0847C9.13773 20.0781 9.13513 20.0707 9.13398 20.0631C9.13282 20.0554 9.13313 20.0476 9.13488 20.0401C9.13664 20.0326 9.13981 20.0255 9.14421 20.0192C9.16345 19.9922 11.0458 17.2942 9.40002 15.8535C8.02815 14.6527 4.77391 14.4069 2.79306 15.9029C1.20952 17.0943 0.808827 19.8346 0.8043 19.8628C0.803185 19.8705 0.800617 19.878 0.796743 19.8847C0.792869 19.8913 0.787764 19.8972 0.78172 19.9018C0.775677 19.9065 0.768813 19.9098 0.76152 19.9117C0.754226 19.9136 0.746647 19.914 0.739215 19.9128C0.731783 19.9117 0.724643 19.909 0.718203 19.905C0.711763 19.9009 0.706149 19.8956 0.701682 19.8893C0.697215 19.8831 0.693982 19.8759 0.692168 19.8684C0.690354 19.8608 0.689994 19.8529 0.691109 19.8452C0.77877 19.3152 0.914448 18.795 1.09633 18.2916C1.37252 17.5118 1.88075 16.4474 2.72741 15.8077C4.37887 14.5598 7.75762 14.2634 9.47246 15.7641C11.1873 17.2648 9.254 20.0616 9.23476 20.0886C9.22968 20.0962 9.22291 20.1024 9.21503 20.1067C9.20715 20.111 9.19839 20.1133 9.18949 20.1133Z" fill="#231F20"/>
<path d="M12.3249 18.615H10.112C10.097 18.615 10.0826 18.6088 10.072 18.5978C10.0614 18.5867 10.0554 18.5718 10.0554 18.5562C10.0554 18.5406 10.0614 18.5256 10.072 18.5146C10.0826 18.5036 10.097 18.4974 10.112 18.4974H12.3249C12.3399 18.4974 12.3543 18.5036 12.3649 18.5146C12.3755 18.5256 12.3815 18.5406 12.3815 18.5562C12.3815 18.5718 12.3755 18.5867 12.3649 18.5978C12.3543 18.6088 12.3399 18.615 12.3249 18.615Z" fill="#231F20"/>
<path d="M17.0359 21.233H10.6711C10.6562 21.2327 10.642 21.2264 10.6314 21.2154C10.6209 21.2044 10.6148 21.1897 10.6145 21.1742C10.6145 21.1586 10.6205 21.1436 10.6311 21.1326C10.6417 21.1216 10.6561 21.1154 10.6711 21.1154H17.0359C17.3358 21.1154 17.8973 20.5273 18.5074 19.5723C19.4468 18.0893 20.2448 16.1334 19.9528 15.4242C19.6993 14.8103 19.2737 14.5092 18.8526 14.2176C18.4315 13.9259 18.0501 13.6577 17.8339 13.1144C17.562 12.4798 17.5388 11.76 17.7694 11.108C17.7721 11.1005 17.7763 11.0936 17.7816 11.0879C17.787 11.0821 17.7935 11.0775 17.8006 11.0745C17.8078 11.0714 17.8154 11.0699 17.8231 11.07C17.8309 11.0701 17.8385 11.0719 17.8455 11.0752C17.8526 11.0785 17.8589 11.0832 17.8641 11.0892C17.8693 11.0951 17.8733 11.1021 17.8758 11.1097C17.8783 11.1172 17.8793 11.1253 17.8787 11.1333C17.8781 11.1413 17.876 11.1491 17.8724 11.1562C17.6601 11.7792 17.6835 12.4628 17.938 13.0685C18.144 13.5801 18.5198 13.8424 18.9182 14.1211C19.3484 14.421 19.7932 14.7327 20.0592 15.3772C20.3784 16.1511 19.5476 18.1492 18.6036 19.637C18.2912 20.1169 17.5294 21.233 17.0359 21.233Z" fill="#231F20"/>
<path d="M17.2657 22.1621C17.1525 22.1621 17.0132 22.1621 16.8559 22.155C16.6431 22.155 16.3782 22.1421 16.0636 22.1421H13.0946C13.0796 22.1421 13.0652 22.1359 13.0546 22.1249C13.0439 22.1138 13.038 22.0989 13.038 22.0833C13.0383 22.0678 13.0443 22.053 13.0549 22.042C13.0654 22.0311 13.0797 22.0248 13.0946 22.0245H16.0579C16.3782 22.0245 16.6442 22.0315 16.8582 22.0374C17.8497 22.0633 17.9086 22.0645 18.4678 21.3176C19.1593 20.3944 20.5493 17.0449 20.564 17.0108C20.5664 17.0029 20.5704 16.9956 20.5757 16.9895C20.5809 16.9833 20.5874 16.9783 20.5947 16.9749C20.6019 16.9715 20.6097 16.9697 20.6177 16.9696C20.6257 16.9696 20.6335 16.9713 20.6408 16.9746C20.6481 16.9779 20.6546 16.9828 20.66 16.9889C20.6653 16.9951 20.6693 17.0023 20.6718 17.0101C20.6743 17.018 20.6751 17.0263 20.6743 17.0345C20.6735 17.0427 20.671 17.0507 20.6671 17.0578C20.6105 17.1954 19.2567 20.4544 18.5572 21.3894C18.0569 22.0598 17.9041 22.1621 17.2657 22.1621Z" fill="#231F20"/>
<path d="M13.2304 18.3798C13.2304 18.3798 12.7426 19.4288 13.0289 19.4994C13.3153 19.57 16.9544 19.9757 16.6658 19.5735C16.3771 19.1713 15.072 18.3798 15.072 18.3798H13.2304Z" fill="white"/>
<path d="M15.9244 19.8016C14.951 19.7767 13.9798 19.6947 13.0153 19.5558C12.9908 19.5511 12.9677 19.5403 12.948 19.5243C12.9283 19.5083 12.9126 19.4877 12.9022 19.4641C12.789 19.2077 13.1342 18.4409 13.1738 18.3539C13.1786 18.3441 13.1859 18.3358 13.1948 18.33C13.2038 18.3242 13.2142 18.3211 13.2247 18.3209H15.0664C15.0764 18.3207 15.0862 18.3236 15.0947 18.3292C15.1479 18.3609 16.4122 19.1313 16.7054 19.5382C16.7205 19.5568 16.7297 19.5797 16.7317 19.604C16.7337 19.6282 16.7285 19.6525 16.7167 19.6735C16.6601 19.7664 16.3477 19.8016 15.9244 19.8016ZM13.2644 18.4339C13.1229 18.7455 12.9384 19.2571 13.0074 19.4088C13.0101 19.4159 13.0143 19.4222 13.0199 19.4271C13.0254 19.432 13.032 19.4354 13.0391 19.4371C13.4308 19.5335 16.4745 19.8322 16.625 19.6052C16.3545 19.2371 15.1909 18.5174 15.0539 18.4291L13.2644 18.4339Z" fill="#231F20"/>
<path d="M12.1358 5.58974L11.9298 8.76519L14.7177 8.8828L14.8309 10.3517C14.8309 10.3517 11.0379 10.5282 10.2512 9.8566C9.46454 9.18505 9.98069 5.91316 10.4074 5.44978C10.8342 4.9864 12.2015 4.59359 12.1358 5.58974Z" fill="#8022D9"/>
<path d="M6.52949 17.2695H3.3194C3.30439 17.2695 3.28999 17.2633 3.27938 17.2523C3.26876 17.2413 3.2628 17.2263 3.2628 17.2107C3.2628 17.1951 3.26876 17.1802 3.27938 17.1692C3.28999 17.1581 3.30439 17.1519 3.3194 17.1519H6.52949C6.5445 17.1519 6.5589 17.1581 6.56951 17.1692C6.58013 17.1802 6.58609 17.1951 6.58609 17.2107C6.58609 17.2263 6.58013 17.2413 6.56951 17.2523C6.5589 17.2633 6.5445 17.2695 6.52949 17.2695Z" fill="#231F20"/>
<path d="M6.24992 17.7106H3.03983C3.02482 17.7106 3.01042 17.7044 2.99981 17.6933C2.98919 17.6823 2.98323 17.6674 2.98323 17.6518C2.98323 17.6362 2.98919 17.6212 2.99981 17.6102C3.01042 17.5992 3.02482 17.593 3.03983 17.593H6.24992C6.26493 17.593 6.27933 17.5992 6.28994 17.6102C6.30056 17.6212 6.30652 17.6362 6.30652 17.6518C6.30652 17.6674 6.30056 17.6823 6.28994 17.6933C6.27933 17.7044 6.26493 17.7106 6.24992 17.7106Z" fill="#231F20"/>
<path d="M5.96921 18.1516H2.75911C2.74419 18.1513 2.72996 18.145 2.71941 18.134C2.70886 18.1231 2.7028 18.1083 2.70251 18.0928C2.70251 18.0772 2.70848 18.0622 2.71909 18.0512C2.7297 18.0402 2.7441 18.034 2.75911 18.034H5.96921C5.98422 18.034 5.99861 18.0402 6.00922 18.0512C6.01984 18.0622 6.0258 18.0772 6.0258 18.0928C6.0258 18.1084 6.01984 18.1234 6.00922 18.1344C5.99861 18.1454 5.98422 18.1516 5.96921 18.1516Z" fill="#231F20"/>
<path d="M5.68962 18.5926H2.47952C2.46451 18.5926 2.45012 18.5864 2.4395 18.5754C2.42889 18.5644 2.42293 18.5494 2.42293 18.5338C2.42293 18.5182 2.42889 18.5033 2.4395 18.4922C2.45012 18.4812 2.46451 18.475 2.47952 18.475H5.68962C5.70463 18.475 5.71902 18.4812 5.72964 18.4922C5.74025 18.5033 5.74622 18.5182 5.74622 18.5338C5.74622 18.5494 5.74025 18.5644 5.72964 18.5754C5.71902 18.5864 5.70463 18.5926 5.68962 18.5926Z" fill="#231F20"/>
<path d="M16.4303 11.9959C16.4201 11.9961 16.4101 11.9933 16.4013 11.9879C16.3925 11.9825 16.3853 11.9747 16.3805 11.9654C16.3732 11.9518 16.3713 11.9357 16.3754 11.9207C16.3794 11.9058 16.389 11.893 16.402 11.8854L18.0863 10.9057C18.0994 10.8984 18.1148 10.8966 18.1291 10.9008C18.1435 10.905 18.1557 10.9147 18.1633 10.928C18.1669 10.9348 18.1691 10.9423 18.1699 10.95C18.1707 10.9577 18.1701 10.9655 18.168 10.9729C18.1658 10.9803 18.1624 10.9873 18.1577 10.9933C18.153 10.9993 18.1472 11.0043 18.1406 11.008L16.4575 11.9877C16.4494 11.9931 16.44 11.996 16.4303 11.9959Z" fill="#231F20"/>
<path d="M16.1009 10.2965C16.3103 10.2965 16.4801 10.1201 16.4801 9.90249C16.4801 9.68489 16.3103 9.5085 16.1009 9.5085C15.8915 9.5085 15.7217 9.68489 15.7217 9.90249C15.7217 10.1201 15.8915 10.2965 16.1009 10.2965Z" fill="#231F20"/>
<path d="M14.0058 8.90751L11.9298 8.82048C11.9223 8.82036 11.915 8.81862 11.9081 8.81538C11.9013 8.81214 11.8952 8.80747 11.8902 8.80167C11.8804 8.78995 11.8752 8.77485 11.8755 8.75933L12.0645 5.34866C12.065 5.34093 12.0669 5.33338 12.0701 5.32642C12.0734 5.31946 12.0779 5.31324 12.0835 5.30811C12.0891 5.30297 12.0956 5.29903 12.1026 5.2965C12.1096 5.29398 12.1171 5.29292 12.1245 5.29338C12.132 5.29384 12.1392 5.29582 12.1459 5.29921C12.1526 5.30259 12.1586 5.30731 12.1635 5.3131C12.1685 5.31889 12.1723 5.32563 12.1747 5.33294C12.1771 5.34025 12.1782 5.34799 12.1777 5.35571L11.9921 8.71228L14.0103 8.79579C14.0252 8.79669 14.0392 8.80357 14.0493 8.81498C14.0595 8.82638 14.0649 8.84142 14.0646 8.85694C14.0627 8.87149 14.0555 8.88474 14.0446 8.8941C14.0337 8.90346 14.0199 8.90824 14.0058 8.90751Z" fill="#231F20"/>
<path d="M12.6418 10.4317C11.6288 10.4317 10.4731 10.3282 10.198 9.88484C9.74526 9.15566 9.77129 7.03751 9.78034 6.23895C9.78034 6.1625 9.78034 6.10134 9.78034 6.05783C9.78034 6.04223 9.78631 6.02727 9.79692 6.01625C9.80753 6.00522 9.82193 5.99902 9.83694 5.99902C9.85195 5.99902 9.86634 6.00522 9.87696 6.01625C9.88757 6.02727 9.89354 6.04223 9.89354 6.05783C9.89354 6.10134 9.89354 6.16368 9.89354 6.24012C9.88561 6.95283 9.86184 9.12038 10.2942 9.82015C10.4833 10.1259 11.2281 10.2906 12.4449 10.3106C13.3787 10.3223 14.2661 10.2377 14.2752 10.2365C14.2902 10.2351 14.3051 10.2399 14.3167 10.25C14.3282 10.26 14.3355 10.2744 14.3368 10.29C14.3382 10.3056 14.3335 10.3211 14.3239 10.3331C14.3142 10.3452 14.3004 10.3527 14.2853 10.3541C14.2265 10.3612 13.4851 10.4317 12.6418 10.4317Z" fill="#231F20"/>
<path d="M13.4455 4.59243C13.4455 4.59243 11.4907 3.561 11.3118 3.83385C11.1791 4.04658 11.0629 4.26996 10.9643 4.50187C10.9643 4.50187 12.9372 5.5286 13.2576 5.24869C13.3491 5.17187 13.416 5.06803 13.4496 4.95087C13.4831 4.83371 13.4817 4.70873 13.4455 4.59243Z" fill="#8022D9"/>
<path d="M13.1319 13.9918C12.0329 13.9918 9.28344 13.9694 8.2851 13.7565C7.19507 13.5213 7.20752 13.1885 7.21431 13.0285C7.21431 13.0144 7.21431 12.9968 7.21431 12.9909C7.20803 12.977 7.20724 12.9611 7.21211 12.9466C7.21697 12.9321 7.22711 12.9201 7.24034 12.9133C7.2542 12.9067 7.26995 12.906 7.2843 12.9113C7.29865 12.9165 7.31049 12.9274 7.31731 12.9415C7.32764 12.9708 7.33113 13.0023 7.3275 13.0332C7.3275 13.1508 7.31165 13.4249 8.30774 13.6413C9.5302 13.9071 13.5496 13.8765 13.5904 13.8765C13.5978 13.8763 13.6053 13.8778 13.6122 13.8806C13.6191 13.8835 13.6254 13.8879 13.6307 13.8934C13.636 13.8989 13.6402 13.9054 13.643 13.9126C13.6457 13.9198 13.6471 13.9275 13.647 13.9353C13.647 13.9509 13.641 13.9659 13.6304 13.9769C13.6198 13.9879 13.6054 13.9941 13.5904 13.9941L13.1319 13.9918Z" fill="white"/>
</svg>
