<svg width="217" height="225" viewBox="0 0 217 225" fill="none" xmlns="http://www.w3.org/2000/svg">
<path d="M106.706 223.528C164.977 223.528 212.215 176.29 212.215 118.019C212.215 59.7478 164.977 12.5097 106.706 12.5097C48.4349 12.5097 1.19684 59.7478 1.19684 118.019C1.19684 176.29 48.4349 223.528 106.706 223.528Z" fill="#8022D9"/>
<path d="M106.706 12.53C127.586 12.52 148 18.7024 165.366 30.2954C182.732 41.8884 196.27 58.3711 204.267 77.6588C212.264 96.9464 214.362 118.173 210.295 138.653C206.227 159.133 196.178 177.946 181.417 192.714C166.656 207.482 147.847 217.541 127.369 221.618C106.891 225.695 85.664 223.608 66.3725 215.62C47.081 207.631 30.5918 194.102 18.9904 176.741C7.38912 159.381 1.19685 138.97 1.19685 118.09C1.19685 90.0937 12.3183 63.2441 32.1147 43.4478C51.911 23.6515 78.7606 12.53 106.757 12.53M106.757 11.6063C85.7009 11.5963 65.1151 17.8313 47.6033 29.5227C30.0915 41.214 16.4405 57.8365 8.3772 77.2873C0.313892 96.7381 -1.7995 118.143 2.30436 138.795C6.40823 159.448 16.545 178.419 31.4323 193.309C46.3197 208.199 65.2888 218.339 85.9401 222.447C106.591 226.555 127.997 224.446 147.449 216.386C166.902 208.326 183.527 194.679 195.222 177.169C206.916 159.66 213.155 139.075 213.149 118.019C213.114 89.7992 201.889 62.7453 181.934 42.7909C161.98 22.8365 134.926 11.6108 106.706 11.5759L106.757 11.6063Z" fill="#231F20"/>
<path d="M185.825 48.2073C185.051 48.5045 184.205 48.5577 183.399 48.3595L184.81 47.04C182.902 44.939 180.892 42.9191 178.822 40.95C178.878 41.7284 179.125 42.4811 179.541 43.1414C179.957 43.8018 180.529 44.3494 181.207 44.736C178.974 44.8679 177.238 43.5383 175.29 42.9496C172.964 42.3803 170.609 41.9398 168.235 41.6301L171.737 44.1371C171.074 44.3896 170.396 44.6032 169.707 44.7765C169.058 43.3657 168.205 44.5127 167.444 44.4721C165.718 44.3706 163.83 46.3904 162.521 44.2995C161.905 44.3763 161.297 44.5088 160.704 44.6954C159.083 45.2069 157.537 45.9304 156.106 46.8472C154.523 48.1261 154.025 48.2682 152.797 46.3904L154.411 45.8322V45.1724L151.133 44.4721C151.002 45.2464 150.955 46.0323 150.991 46.8167C151.13 47.3143 151.353 47.7845 151.65 48.2073C150.684 48.2915 149.725 48.4373 148.778 48.6437C147.875 48.9625 146.99 49.3318 146.129 49.7501L146.92 51.3842L142.546 50.6737L142.495 51.1L144.18 52.1962C141.663 52.9473 140.12 51.638 140.12 49.07L137.978 47.9231C138.744 47.8553 139.515 47.9487 140.242 48.1971C142.607 48.7249 145.002 49.3136 147.347 48.1261C148.544 47.5171 148.483 46.6543 147.347 46.0961C145.944 45.327 144.468 44.698 142.942 44.2183C140.272 43.4571 137.542 42.9293 134.822 42.3C134.954 42.097 135.106 41.8432 135.268 41.5996C134.013 41.2408 132.734 40.9695 131.442 40.7876C130.657 40.8966 129.897 41.144 129.198 41.5184C129.422 41.0515 129.554 40.747 129.868 40.0771C128.589 40.676 127.564 41.6098 126.823 41.4372C125.128 41.0515 123.778 42.371 122.083 42.0259C121.068 41.8331 119.769 43.315 119.038 43.7819C118.234 43.8787 117.442 44.0555 116.673 44.3097C115.952 44.7666 115.273 45.2862 114.643 45.8626L117.323 45.213C116.115 46.7152 114.816 48.4813 113.354 50.0952C112.339 51.2117 111.263 52.653 109.954 53.0082C108.167 53.5456 106.525 54.4828 105.153 55.7487C104.892 56.0332 104.693 56.3684 104.567 56.7333C104.441 57.0983 104.392 57.4852 104.422 57.8701C104.598 58.9925 104.909 60.0898 105.346 61.1384C105.587 61.7079 106.036 62.1644 106.602 62.4151C107.167 62.6658 107.807 62.692 108.391 62.4883C109.406 61.9707 110.766 60.7019 111.436 60.9963C112.38 61.4327 112.837 62.9552 113.466 64.0413C113.598 64.2646 113.71 64.498 113.821 64.7213C114.42 65.9698 114.349 68.9031 116.684 65.8784C118.571 66.2844 118.582 64.7416 118.714 63.686C118.718 63.1701 118.854 62.6637 119.108 62.2145C119.361 61.7654 119.725 61.3881 120.165 61.1181C120.437 61.0238 120.675 60.8514 120.85 60.6223C121.024 60.3933 121.127 60.1178 121.145 59.8305C121.164 59.5432 121.097 59.2569 120.953 59.0074C120.809 58.758 120.595 58.5565 120.338 58.4283C118.886 57.4133 118.724 56.3983 119.972 55.089C120.642 54.3785 121.647 53.9928 122.378 53.3229C123.108 52.653 123.504 51.7598 124.235 51.1812C125.066 50.4628 126.032 49.9176 127.077 49.5775C127.676 49.4151 128.468 49.9734 129.341 50.2576C127.615 51.6177 126.296 52.6225 125.047 53.6477C124.337 54.2161 123.494 57.7077 124.144 58.0629C125.338 58.7835 126.682 59.221 128.072 59.3418C129.29 59.4129 130.538 58.7328 131.787 58.5603C132.408 58.5817 133.022 58.7051 133.604 58.9257V59.6971C132.507 59.7986 131.421 59.8899 130.335 60.0015C129.474 60.0461 128.616 60.1478 127.767 60.3061C126.6 60.5598 126.448 61.3211 127.26 62.0823C128.275 63.0973 127.991 63.7571 127.118 64.5285C124.915 62.7319 124.428 62.9146 123.91 65.6957C123.85 66.3405 123.85 66.9896 123.91 67.6344C123.017 68.0201 121.88 68.9133 121.363 68.6494C119.059 67.543 117.526 69.5933 115.486 69.7456C114.867 68.1419 113.71 69.1264 112.654 69.1467C111.943 69.0592 111.28 68.742 110.766 68.2434C110.482 67.9998 110.289 67.1269 110.472 66.934C110.914 66.4711 111.207 65.8855 111.312 65.2536C111.417 64.6217 111.33 63.9729 111.06 63.3917C108.279 64.9142 108.3 64.9142 108.949 67.7562C109.052 68.3389 109.089 68.9312 109.061 69.5223L104.94 71.1665C103.62 72.4759 102.677 73.4199 101.722 74.3435C101.387 74.6785 100.88 74.8916 100.707 75.2773C100.55 75.6583 100.317 76.0035 100.022 76.2918C99.7279 76.5801 99.3778 76.8056 98.9934 76.9546C98.609 77.1036 98.1984 77.173 97.7864 77.1586C97.3745 77.1442 96.9697 77.0463 96.5967 76.8709C96.6677 77.4393 96.7388 77.9873 96.8098 78.5963L93.1558 78.434C94.2058 79.7651 95.3488 81.0201 96.5764 82.1894C98.038 83.8642 96.8403 85.6506 96.5764 87.3558C93.5314 87.5994 90.4255 86.1784 87.4414 87.975C89.1263 91.4057 86.3046 94.9683 88.3346 98.328L90.3646 98.0843C90.8721 98.7542 91.3187 99.343 91.5623 99.6779C94.6073 98.9573 97.6523 98.5208 98.5353 95.8615C98.5353 94.8465 98.3019 94.0751 98.5353 93.6894C99.2458 92.6744 100.2 91.9132 100.992 90.9997C101.53 90.3805 102.413 89.67 102.382 89.0407C102.281 87.0614 103.468 87.1731 104.554 87.6096C105.015 87.8596 105.548 87.9455 106.064 87.8533C106.58 87.7611 107.05 87.4962 107.396 87.1021C108.083 86.5561 108.809 86.0609 109.568 85.6202C110.086 86.2799 110.583 86.9904 111.172 87.6502C112.067 88.8521 113.087 89.9546 114.217 90.9388C116.247 92.3902 118.582 93.456 117.729 96.6938L119.15 94.745L118.49 92.4308L120.774 93.4458C120.703 93.0703 120.774 92.8064 120.632 92.7455C119.282 91.8523 118.47 90.2486 116.714 89.8629C116.19 89.6328 115.751 89.2463 115.455 88.7565C114.938 88.0765 114.603 87.2543 114.065 86.5946C112.715 84.9604 112.958 84.0875 114.806 83.5496C114.966 83.9667 115.177 84.3622 115.435 84.7269C115.638 84.9502 116.267 84.9299 116.318 85.1228C116.805 86.9599 118.348 87.5081 119.789 88.3607C120.662 88.8986 121.819 89.9339 121.819 90.7459C121.819 94.4608 124.479 96.7344 125.778 99.6779C126.351 98.845 126.853 97.9657 127.28 97.0491C127.427 96.4604 127.362 95.8389 127.097 95.2931C126.656 94.4579 126.157 93.6542 125.605 92.8876C126.448 92.9383 127.219 93.2124 127.514 92.9586C128.955 91.6594 128.914 91.6188 130.163 92.3395C130.061 93.6996 129.97 94.8465 129.899 95.8615C130.457 96.6938 130.914 97.9625 131.685 98.3381C132.7 98.7948 133.522 100.541 135.248 99.0182C135.786 98.5411 137.603 99.5053 138.831 99.7997C138.895 99.8007 138.959 99.7831 139.014 99.7489L142.14 98.3178C141.49 101.18 140.983 103.454 140.465 105.727C140.13 107.189 139.572 108.285 137.735 108.336C137.024 108.336 136.334 109.117 135.979 109.351L138.841 112.396L137.42 113.451C137.481 113.644 137.542 113.827 137.613 114.01L140.363 113.177C140.739 113.847 141.267 114.68 141.703 115.563C142.444 117.055 143.145 118.608 143.814 120.1C144.352 121.328 144.829 122.576 145.327 123.835C145.672 124.748 145.814 125.743 146.24 126.606C146.786 127.589 147.396 128.535 148.067 129.438C149.955 132.178 149.904 135.416 150.453 138.502C150.645 139.588 151.112 139.994 152.117 139.517C153.927 138.678 155.69 137.74 157.395 136.705C159.192 135.528 160.704 133.924 162.551 132.838C164.265 131.973 165.774 130.752 166.977 129.255C167.291 128.808 167.535 128.311 167.829 127.844C168.078 127.341 168.377 126.865 168.723 126.423C170.844 124.089 170.407 122.028 167.576 120.638C167.003 120.283 166.575 119.736 166.368 119.095C166.191 118.274 166.1 117.437 166.094 116.598C165.293 117.447 164.575 118.372 163.952 119.359C163.14 120.973 161.841 119.988 160.765 120.201C160.653 119.531 160.552 118.851 160.42 118.171C160.339 117.735 160.237 117.298 160.014 116.334L159.273 118.09L156.025 111.147C157.761 109.209 158.126 109.249 159.344 111.604C159.517 111.933 159.67 112.272 159.801 112.619C160.023 113.273 160.384 113.872 160.859 114.374C161.334 114.875 161.911 115.269 162.553 115.526C163.194 115.783 163.883 115.899 164.573 115.865C165.263 115.831 165.938 115.648 166.55 115.329C167.454 117.572 167.637 117.857 170.204 118.019C172.772 118.181 175.462 118.019 177.807 118.019L182.11 122.911L180.882 123.419L183.714 125.875L185.176 124.099C185.835 127.661 186.394 131.793 187.419 135.822C188.308 139.906 189.604 143.891 191.286 147.718C193.738 144.851 194.97 141.139 194.717 137.375C194.569 136.447 194.689 135.497 195.062 134.635C195.975 133.285 197.467 132.33 198.34 130.97C199.69 128.859 202.4 127.783 202.867 125.022C202.928 124.667 203.689 124.322 204.187 124.2C205.557 123.845 206.968 123.601 208.409 123.307C208.584 124.37 208.926 125.397 209.424 126.352C210.276 127.476 210.988 128.7 211.545 129.996C213.218 115.322 211.793 100.461 207.363 86.3727C202.933 72.2843 195.595 59.2824 185.825 48.2073Z" fill="#E1E9EB"/>
<path d="M39.5842 199.422C39.9056 198.754 40.1115 198.037 40.1932 197.301C40.3251 195.514 40.9138 194.316 42.3957 193.636C44.1314 192.845 45.9787 192.317 47.7651 191.606C48.182 191.495 48.5542 191.258 48.8308 190.926C49.7472 189.472 50.4737 187.906 50.9928 186.268C51.4001 183.986 51.6645 181.68 51.7845 179.366C51.7787 179.11 51.8308 178.857 51.9367 178.625C52.8502 177.437 53.9058 176.341 54.7178 175.082C55.5298 173.824 56.8899 172.179 56.9711 170.667C57.0246 170.226 56.9869 169.778 56.8605 169.352C56.7341 168.926 56.5216 168.531 56.2362 168.19C55.9507 167.85 55.5984 167.571 55.2011 167.372C54.8038 167.173 54.3698 167.058 53.9261 167.033C53.6188 166.945 53.355 166.746 53.1851 166.475C51.1551 163.694 48.1102 164.313 45.258 164.262C45.5118 163.065 44.9027 162.679 43.6543 162.395C40.7514 161.725 38.427 160.365 37.5643 157.086C36.6812 153.625 34.9761 152.661 31.3627 152.458C30.2788 152.236 29.2672 151.747 28.4192 151.037C27.728 150.473 27.0955 149.84 26.5313 149.149C26.2556 148.78 25.9427 148.439 25.5975 148.134C24.5825 147.444 23.8821 145.962 22.5525 146.246C21.2228 146.53 19.7308 146.906 18.3199 146.246C16.9091 145.586 15.7723 145.048 14.2599 144.328L12.8491 148.185C11.8341 146.672 12.8491 145.19 13.0927 143.617C10.2811 145.353 7.00266 146.337 6.38351 150.174L6.20081 150.063C12.3574 169.38 23.947 186.516 39.5842 199.422Z" fill="#E1E9EB"/>
<path d="M18.4112 83.6916C21.9536 84.5036 24.5926 82.6766 27.4244 81.347C27.6888 81.2189 27.9187 81.0296 28.0953 80.7948C28.2718 80.56 28.3898 80.2866 28.4394 79.997C28.3957 79.6543 28.2833 79.324 28.1089 79.0258C27.9345 78.7275 27.7017 78.4675 27.4244 78.2614C26.6302 77.9364 25.7922 77.7312 24.9377 77.6524C25.364 77.3783 25.8512 77.0535 26.044 76.9419C24.6116 76.2298 23.2518 75.3799 21.984 74.4044C21.3649 73.8461 21.5679 72.486 21.0908 71.6639C20.219 70.2617 19.2737 68.9065 18.259 67.6039C17.3049 68.9335 17.0511 71.3391 14.7369 70.7605C14.0223 70.6141 13.3947 70.1908 12.9911 69.5831C6.48088 82.1674 2.58948 95.941 1.55209 110.072C1.91566 109.681 2.32852 109.34 2.78024 109.057C5.66284 107.402 5.82524 106.884 5.09444 103.555C4.98522 102.472 4.98522 101.38 5.09444 100.297C5.39894 101.424 5.61209 102.246 5.82524 103.078C6.51544 101.87 7.49999 100.876 7.59134 99.8099C7.76389 97.9118 8.70784 97.4855 10.3115 97.455C10.9464 97.3842 11.5722 97.2481 12.1791 97.049L11.6412 96.8054C11.7427 95.8615 11.4991 94.4202 12.0066 94.0853C14.0201 92.8779 16.1046 91.7933 18.2488 90.8372L16.8887 93.7706L17.3658 93.8822L23.9836 90.35C23.8821 90.1775 23.7907 90.0049 23.6892 89.8425L22.8671 90.3094L23.3238 88.7565C23.1787 88.7603 23.037 88.8016 22.9126 88.8763C22.7881 88.951 22.685 89.0565 22.6133 89.1828C21.4156 90.959 20.7762 91.1011 18.9898 89.8222C17.6601 88.8681 17.1729 87.7922 18.5939 86.422C18.7259 86.3002 18.3808 85.3359 18.2082 85.3156C17.463 85.2359 16.7094 85.2944 15.9854 85.4882C15.0196 85.8221 14.0741 86.2119 13.1535 86.6554C14.605 85.2344 16.1376 83.174 18.4112 83.6916Z" fill="#E1E9EB"/>
<path d="M109.65 155.422C110.147 156.243 110.324 157.219 110.147 158.162C109.325 160.964 109.304 163.308 111.588 165.653C112.551 166.682 113.29 167.9 113.756 169.23C114.223 170.56 114.408 171.972 114.298 173.377C114.273 173.762 114.369 174.145 114.572 174.473C115.506 175.722 114.938 176.625 114.319 177.894C112.958 180.695 111.649 183.568 113.578 186.856C114.714 188.795 115.963 190.723 116.054 193.291C115.996 195.743 116.862 198.127 118.48 199.97C119.495 201.066 120.51 202.853 120.368 204.213C120.251 204.907 120.363 205.62 120.687 206.244C121.011 206.869 121.53 207.371 122.165 207.674C122.745 207.415 123.351 207.214 123.971 207.075C125.712 207.027 127.446 206.844 129.158 206.527C133.451 205.289 135.563 201.604 137.745 198.133C138.151 197.493 137.887 196.438 137.958 195.21C138.212 195.068 138.8 194.702 139.42 194.408C139.795 194.287 140.142 194.089 140.437 193.827C140.732 193.564 140.969 193.243 141.132 192.884C141.295 192.524 141.382 192.135 141.386 191.74C141.39 191.345 141.311 190.954 141.155 190.591C140.962 189.922 140.638 189.282 140.475 188.561C140.384 188.186 140.333 187.546 140.536 187.394C141.967 186.085 143.581 184.918 144.941 183.588C145.855 182.715 147.062 181.751 147.296 180.655C147.519 178.962 147.433 177.242 147.042 175.58C146.859 174.453 146.108 173.418 145.905 172.281C145.702 171.144 146.504 169.611 145.185 168.515C145.022 168.383 145.104 167.703 145.296 167.439C147.438 164.486 149.164 160.994 151.904 158.771C155.538 155.828 157.355 151.961 159.354 148.083C159.764 146.912 160.007 145.689 160.075 144.45C157.304 145.15 154.848 145.83 152.361 146.378C152.095 146.387 151.83 146.332 151.59 146.217C151.349 146.102 151.14 145.931 150.98 145.718C150.564 145.018 150.625 143.993 150.128 143.394C149.224 142.288 148.017 141.425 147.012 140.349C146.432 139.81 145.975 139.152 145.672 138.42C144.85 135.903 142.972 133.904 142.678 131.052C142.495 129.296 140.881 127.722 140.079 125.977C139.063 123.82 138.172 121.607 137.41 119.349C136.852 117.694 135.918 117.836 134.598 118.191C133.619 118.523 132.571 118.6 131.553 118.415C129.583 117.843 127.645 117.166 125.747 116.385C124.042 115.735 122.702 116.476 122.52 118.202C122.408 119.45 121.87 120.13 120.672 119.217C119.475 118.303 117.13 118.811 116.704 116.578C116.704 116.496 116.247 116.578 116.044 116.466C114.237 115.684 111.781 116.679 110.766 114.761C111.263 113.309 111.669 112.091 112.116 110.762C111.291 110.579 110.453 110.463 109.609 110.417C107.417 110.498 105.224 110.569 103.062 110.863C101.508 111.068 99.9871 111.471 98.5353 112.061C96.2313 113.005 94.0084 113.847 91.9378 112.183C90.9228 113.299 90.1108 114.598 88.9639 115.228C88.3096 115.553 87.7599 116.056 87.3777 116.679C86.9954 117.301 86.7959 118.019 86.8019 118.75C86.8019 121.074 85.5839 121.886 83.7569 122.454C83.2884 122.588 82.8777 122.874 82.5897 123.266C81.5036 125.033 80.4176 126.809 79.4838 128.666C78.8342 129.965 77.6365 131.072 78.8342 132.98C79.5345 134.076 79.4127 136.025 78.9661 137.416C78.4003 139.38 78.2585 141.442 78.55 143.465C78.6815 143.925 78.938 144.34 79.2909 144.663C79.565 144.987 79.9913 145.201 80.2247 145.536C81.2243 147.205 82.3295 148.808 83.5336 150.337C84.9232 151.651 86.3872 152.885 87.9184 154.031C88.3208 154.377 88.8139 154.6 89.3393 154.674C89.8647 154.748 90.4002 154.669 90.8822 154.447C92.4584 154.147 94.0585 153.991 95.6629 153.98C96.2834 153.956 96.8994 153.864 97.5 153.706C98.7183 153.2 99.9616 152.756 101.225 152.377C102.494 152.103 104.27 151.301 104.828 153.209C105.366 154.934 106.341 154.874 107.721 154.742C108.073 154.708 108.427 154.751 108.76 154.869C109.094 154.986 109.397 155.175 109.65 155.422Z" fill="#E1E9EB"/>
<path d="M29.83 45.7814C30.186 45.6587 30.5266 45.4952 30.845 45.2942L33.89 47.4562L29.9315 46.8877L29.8401 47.4764L33.6261 48.8975V50.765L29.1702 53.13L31.251 54.7743C31.1467 55.3243 31.1467 55.8889 31.251 56.4389C32.6821 59.3824 34.1437 62.3157 35.6967 65.1882C36.1358 65.9235 36.7583 66.532 37.5034 66.9543C38.5768 67.5118 39.6816 68.0066 40.8123 68.4362C41.6649 68.8118 42.4566 69.2381 42.7103 67.7562C42.9641 66.2743 43.3396 64.9649 43.6746 63.5743C43.7355 63.3206 43.8268 62.9653 44.0197 62.874C45.5828 62.062 45.867 60.7425 45.8568 59.1185C45.8568 58.5907 46.7703 57.5656 47.1865 57.6062C50.2315 57.8904 52.1904 56.3272 53.8449 54.0333C54.3016 53.3939 55.073 52.6124 55.7429 52.5616C59.8029 52.318 63.1626 50.5316 66.7455 48.5016L61.9243 47.9941L63.2235 46.431L67.05 48.0347C67.3342 46.0047 66.6237 45.1115 65.152 44.5329C63.5077 43.8935 63.3453 43.0105 64.1979 41.8635H68.6131L67.385 40.341L70.2168 39.935L68.9684 38.6358C71.1709 37.1336 68.2782 36.3825 68.4507 35.2457L71.2014 35.0731C70.6939 34.3119 70.4198 33.3984 69.8514 33.1446C68.9543 32.9332 68.0294 32.8647 67.1109 32.9416C69.6586 29.1354 73.9825 27.8667 77.9511 26.0194C76.8865 25.4455 75.7103 25.1085 74.5033 25.0314C73.2962 24.9543 72.0868 25.139 70.9578 25.5727C68.909 26.1351 66.823 26.5522 64.7155 26.8212L65.7305 25.2683C64.9185 25.3596 64.1065 25.4611 63.2844 25.5321C62.8378 25.5321 62.381 25.5321 61.9243 25.5321L61.8634 24.7506L66.8267 23.9183C65.1418 23.4616 63.528 22.8221 61.904 22.4973C49.8431 28.1719 38.9614 36.0715 29.83 45.7814Z" fill="#E1E9EB"/>
<path d="M16.3914 63.4323C16.1884 63.7672 15.9955 64.1123 15.7925 64.4473C16.1985 64.5792 16.6045 64.7213 17.0105 64.8837L16.3914 63.4323Z" fill="#E1E9EB"/>
<path d="M22.1566 55.0078H22.0957C21.7811 55.4239 21.4766 55.84 21.1721 56.2663C21.507 55.8299 21.8318 55.4138 22.1566 55.0078Z" fill="#E1E9EB"/>
<path d="M18.2387 62.8638C18.3843 62.1413 18.3424 61.3935 18.1169 60.6917C17.6804 61.3718 17.2542 62.0417 16.8279 62.7217L18.2387 62.8638Z" fill="#E1E9EB"/>
<path d="M150.97 189.323C150.3 190.764 150.493 193.535 151.65 194.52C151.911 194.755 152.227 194.922 152.568 195.006C152.91 195.09 153.267 195.089 153.608 195.001C153.948 194.914 154.262 194.743 154.521 194.505C154.78 194.267 154.976 193.969 155.091 193.636C156.187 190.003 157.121 186.339 158.136 182.685C158.217 182.411 158.136 182.055 158.329 181.842C158.771 181.174 158.956 180.368 158.847 179.574C158.739 178.781 158.346 178.053 157.74 177.528C155.619 179.112 155.396 182.603 151.579 182.431C151.579 183.669 151.66 184.816 151.579 185.953C151.566 187.102 151.36 188.241 150.97 189.323Z" fill="#E1E9EB"/>
<path d="M100.038 73.0138C100.21 72.5469 100.657 71.877 100.494 71.674C100.212 71.4179 99.8575 71.2549 99.4793 71.2071C97.9974 69.1771 96.7185 67.4009 95.3482 65.513C96.4647 63.483 96.414 62.7928 94.9219 61.8285C93.9983 61.2195 91.8769 62.062 90.9533 63.4119C90.5168 64.0311 91.1563 65.2085 92.8006 66.7716L92.5671 67.9591C92.8919 67.9591 93.1254 67.9591 93.2573 68.0505C93.846 68.4971 94.7189 68.8828 94.8915 69.4715C95.064 70.0602 94.5261 70.7808 93.5517 70.3748C93.3232 70.5525 93.1563 70.7975 93.0746 71.0752C93.0036 71.7755 93.0746 72.4759 93.0746 73.3488L94.658 73.8258L91.8566 75.9675L99.4184 74.7596C99.7432 73.8258 99.865 73.43 100.038 73.0138Z" fill="#E1E9EB"/>
<path d="M164.541 34.9615C163.117 36.5003 161.591 37.9415 159.973 39.2753C162.003 41.2342 164.561 41.4981 167.708 41.3763C166.845 40.7673 166.124 40.4933 165.799 39.9655C165.475 39.4377 165.211 38.4125 165.485 38.0573C166.895 36.3748 168.65 35.0146 170.631 34.0683C169.961 33.5608 169.291 33.0533 168.601 32.5661C167.025 32.9068 165.601 33.7469 164.541 34.9615Z" fill="#E1E9EB"/>
<path d="M69.2323 62.8842C69.9757 63.0669 70.7523 63.0669 71.4957 62.8842C72.6729 62.5812 73.782 62.0576 74.764 61.3414C75.4948 60.7324 77.1696 60.235 76.3677 58.8546C75.5863 57.8509 74.6671 56.9624 73.6374 56.2156L73.4851 56.8449L67.7098 58.205L66.3091 56.3273L66.5222 56.9566L64.005 58.408L64.2689 58.7328H66.979L64.5227 60.0219L67.2429 60.8034L65.8726 61.8184C67.0094 62.265 68.1056 62.6406 69.2323 62.8842Z" fill="#E1E9EB"/>
<path d="M118.724 31.0233C119.962 30.0083 120.977 29.1557 122.073 28.4046C122.273 28.3045 122.494 28.2525 122.718 28.2525C122.941 28.2525 123.162 28.3045 123.362 28.4046C123.677 28.6177 123.748 29.1963 123.971 29.7241H127.666C127.666 29.4907 127.666 29.2572 127.737 29.0339L117.364 24.8927C117.8 25.9077 117.962 26.2223 117.993 26.3035L111.822 25.7656L111.68 26.405C112.457 27.1535 113.361 27.7583 114.349 28.1915C115.252 28.4249 116.379 27.958 117.394 27.7956L117.455 28.2727L115.11 29.1151L115.192 29.4399L117.039 29.6125L115.79 30.2519L118.724 31.0233Z" fill="#E1E9EB"/>
<path d="M91.2882 69.5425C92.1713 69.0147 92.3032 68.2535 91.4303 67.8272C90.5574 67.4009 89.5526 66.6194 88.5477 67.8272C87.9996 68.4464 87.35 68.964 86.5989 69.6644V72.7094L85.9899 73.0037C86.3249 73.2778 86.7309 73.8259 87.0049 73.765C88.3858 73.4355 89.7242 72.9485 90.9939 72.3135C91.3085 72.1308 91.0751 70.9636 91.1157 70.2835C91.0954 69.9486 91.1461 69.6339 91.2882 69.5425Z" fill="#E1E9EB"/>
<path d="M2.62797 129.773C2.36875 129.648 2.0964 129.553 1.81598 129.488L1.96823 130.818C2.73111 131.078 3.47402 131.394 4.19108 131.762C4.94218 132.138 5.40908 133.082 6.22108 133.985L9.70253 133.589C7.13458 132.209 4.92187 130.92 2.62797 129.773Z" fill="#E1E9EB"/>
<path d="M16.3609 136.177C16.5132 134.472 13.4682 133.396 10.7074 134.147L12.169 135.822L9.29654 135.568C11.56 137.142 14.0061 135.984 16.3609 136.177Z" fill="#E1E9EB"/>
<path d="M130.772 25.0145H121.028C122.299 25.6788 123.671 26.1314 125.088 26.3543C126.983 26.3877 128.878 26.2996 130.762 26.0904C130.772 25.725 130.772 25.3698 130.772 25.0145Z" fill="#E1E9EB"/>
<path d="M195.651 152.438C196.199 152.224 196.94 151.179 196.797 150.793C196.259 149.583 195.61 148.424 194.859 147.332L194.29 147.596C194.29 148.763 194.29 149.931 194.29 151.088C194.29 152.245 194.595 152.854 195.651 152.438Z" fill="#E1E9EB"/>
<path d="M109.934 91.3042L108.675 91.8218V95.08C110.837 94.9683 109.853 93.2225 110.289 92.2887C110.391 92.0756 110.076 91.7 109.934 91.3042Z" fill="#E1E9EB"/>
<path d="M116.937 96.6126H113.496L113.395 97.0186L116.541 98.9268C116.684 98.064 116.826 97.2926 116.937 96.6126Z" fill="#E1E9EB"/>
<path d="M104.676 135.65L101.083 128.392C97.2666 120.678 93.5009 112.944 89.6236 105.26C88.1355 102.513 87.3443 99.4426 87.3196 96.3183C87.3831 92.11 88.9718 88.0677 91.7906 84.9423C94.6095 81.817 98.4668 79.8209 102.646 79.3248C106.826 78.8287 111.043 79.8664 114.515 82.2451C117.987 84.6237 120.478 88.1818 121.525 92.2583C122.585 96.2986 122.119 100.588 120.216 104.306C117.015 110.762 113.814 117.214 110.614 123.662C108.733 127.445 106.858 131.231 104.991 135.02L104.676 135.65ZM104.676 105.2C106.396 105.206 108.079 104.701 109.511 103.75C110.944 102.799 112.063 101.444 112.725 99.8572C113.387 98.2701 113.563 96.5222 113.232 94.8348C112.9 93.1474 112.075 91.5965 110.861 90.3783C109.647 89.1602 108.099 88.3297 106.413 87.9919C104.727 87.6542 102.978 87.8245 101.389 88.4812C99.7993 89.1379 98.4406 90.2515 97.4845 91.6809C96.5285 93.1104 96.0181 94.7914 96.0181 96.5111C96.01 98.8138 96.9142 101.026 98.5329 102.664C100.152 104.302 102.353 105.231 104.656 105.25L104.676 105.2Z" fill="#231F20"/>
<path d="M201.365 101.901C200.279 99.6881 199.223 97.5769 198.178 95.4555C194.798 88.6144 191.448 81.7632 188.028 74.9525C186.715 72.5116 186.018 69.7868 185.998 67.0152C186.055 63.2809 187.466 59.6943 189.969 56.9226C192.473 54.151 195.898 52.3829 199.607 51.9473C203.316 51.5117 207.057 52.4383 210.135 54.5546C213.212 56.6709 215.416 59.833 216.336 63.4526C217.283 67.0326 216.87 70.8361 215.179 74.1304C212.337 79.855 209.499 85.5762 206.663 91.294L201.669 101.363C201.568 101.515 201.487 101.667 201.365 101.901ZM201.365 74.9424C202.89 74.9464 204.381 74.498 205.651 73.6539C206.92 72.8098 207.911 71.6081 208.497 70.2007C209.083 68.7934 209.239 67.2438 208.944 65.748C208.649 64.2523 207.917 62.8777 206.84 61.7983C205.763 60.7188 204.391 59.9831 202.896 59.6842C201.401 59.3853 199.851 59.5367 198.442 60.1192C197.033 60.7016 195.829 61.6891 194.981 62.9564C194.134 64.2237 193.681 65.714 193.681 67.2385C193.687 69.2765 194.497 71.2299 195.937 72.6729C197.376 74.1159 199.327 74.9317 201.365 74.9424Z" fill="#231F20"/>
<path d="M48.2116 42.4319C47.2981 40.5846 46.4151 38.8084 45.5422 37.0321C42.7002 31.2974 39.8988 25.5525 37.0162 19.838C35.9119 17.7945 35.3231 15.5124 35.3008 13.1898C35.3546 10.0623 36.541 7.06055 38.6399 4.74143C40.7388 2.42231 43.6077 0.943301 46.7143 0.57884C49.8209 0.214379 52.9543 0.989208 55.533 2.75956C58.1116 4.52991 59.9606 7.17558 60.7367 10.2057C61.5166 13.2126 61.155 16.4019 59.7217 19.158L52.6167 33.5405L48.4451 41.965L48.2116 42.4319ZM48.2116 19.838C49.4917 19.842 50.7441 19.466 51.8103 18.7575C52.8764 18.0491 53.7083 17.0401 54.2005 15.8585C54.6926 14.6768 54.823 13.3756 54.575 12.1198C54.327 10.864 53.7118 9.7101 52.8074 8.80425C51.9029 7.8984 50.75 7.2814 49.4946 7.03142C48.2392 6.78144 46.9378 6.90975 45.7553 7.40006C44.5729 7.89038 43.5626 8.72065 42.8525 9.78568C42.1424 10.8507 41.7644 12.1025 41.7664 13.3826C41.7743 15.0887 42.4542 16.723 43.6588 17.9313C44.8633 19.1396 46.4954 19.8247 48.2015 19.838H48.2116Z" fill="#231F20"/>
<path d="M35.2907 164.607C34.367 162.76 33.4941 160.984 32.6111 159.208C29.7792 153.473 26.9778 147.728 24.0952 142.024C22.987 139.978 22.398 137.692 22.3799 135.365C22.4336 132.238 23.62 129.236 25.7189 126.917C27.8179 124.598 30.6868 123.119 33.7934 122.754C36.9 122.39 40.0333 123.165 42.612 124.935C45.1907 126.705 47.0396 129.351 47.8158 132.381C48.585 135.389 48.2239 138.574 46.8008 141.333L39.6958 155.726C38.3018 158.534 36.9079 161.346 35.514 164.161C35.4531 164.293 35.382 164.425 35.2907 164.607ZM35.2907 142.014C36.5712 142.02 37.8246 141.645 38.8921 140.938C39.9595 140.231 40.793 139.223 41.2867 138.041C41.7804 136.86 41.9122 135.558 41.6654 134.302C41.4185 133.045 40.8042 131.89 39.9002 130.983C38.9961 130.077 37.8432 129.459 36.5875 129.208C35.3318 128.957 34.0299 129.085 32.8469 129.575C31.6639 130.065 30.653 130.895 29.9424 131.96C29.2319 133.025 28.8536 134.278 28.8556 135.558C28.8582 137.262 29.5336 138.897 30.7349 140.106C31.9362 141.314 33.5662 142 35.2704 142.014H35.2907Z" fill="#231F20"/>
<path d="M116.876 128.575H116.775C116.71 128.562 116.648 128.536 116.592 128.498C116.537 128.461 116.49 128.413 116.453 128.358C116.416 128.302 116.391 128.24 116.378 128.174C116.365 128.109 116.366 128.041 116.379 127.976C116.44 127.692 122.692 99.0182 154.279 85.0213C164.713 80.4031 173.889 79.7535 181.542 83.0928C192.25 87.7618 196.158 98.805 196.199 98.9167C196.241 99.0446 196.232 99.184 196.173 99.3053C196.114 99.4266 196.011 99.5203 195.884 99.5663C195.756 99.6087 195.617 99.5996 195.495 99.5408C195.374 99.4821 195.28 99.3783 195.234 99.2516C195.234 99.14 191.428 88.5028 181.126 84.0266C173.737 80.8192 164.886 81.4688 154.736 85.9653C123.636 99.7388 117.475 127.905 117.414 128.189C117.388 128.308 117.318 128.413 117.219 128.485C117.12 128.556 116.998 128.588 116.876 128.575Z" fill="#231F20"/>
<path d="M40.7616 163.633C40.6811 163.632 40.6017 163.615 40.5281 163.582C40.4685 163.551 40.4156 163.509 40.3725 163.457C40.3295 163.406 40.2971 163.346 40.2773 163.282C40.2574 163.218 40.2506 163.15 40.257 163.083C40.2635 163.016 40.2832 162.951 40.3149 162.892C61.8634 121.358 98.1699 135.041 98.4846 135.183C98.5514 135.203 98.6133 135.237 98.6664 135.282C98.7195 135.327 98.7627 135.383 98.7933 135.446C98.8238 135.509 98.8411 135.577 98.8441 135.647C98.847 135.717 98.8355 135.786 98.8103 135.851C98.7851 135.916 98.7467 135.976 98.6976 136.025C98.6484 136.075 98.5896 136.114 98.5247 136.14C98.4599 136.165 98.3904 136.178 98.3206 136.175C98.2508 136.173 98.1823 136.157 98.1192 136.127C97.7639 135.984 62.3303 122.658 41.2082 163.359C41.1657 163.441 41.1016 163.51 41.023 163.558C40.9443 163.606 40.8539 163.632 40.7616 163.633Z" fill="#231F20"/>
<path d="M96.485 77.3784C96.3807 77.3783 96.279 77.3461 96.1936 77.2862C96.1083 77.2263 96.0435 77.1415 96.008 77.0434C95.8963 76.7389 84.3355 46.5934 55.6516 42.9394C55.517 42.9233 55.3943 42.8543 55.3106 42.7477C55.2268 42.6411 55.1888 42.5056 55.205 42.371C55.2211 42.2364 55.2901 42.1137 55.3967 42.03C55.5033 41.9462 55.6388 41.9083 55.7734 41.9244C85.0764 45.6698 96.8504 76.3735 96.9621 76.678C96.9865 76.7406 96.9983 76.8074 96.9967 76.8746C96.9951 76.9418 96.9802 77.008 96.9528 77.0694C96.9255 77.1308 96.8861 77.1861 96.8372 77.2322C96.7883 77.2782 96.7307 77.3141 96.6678 77.3378C96.6095 77.3611 96.5477 77.3748 96.485 77.3784Z" fill="#231F20"/>
</svg>
